<?xml version="1.0" encoding="UTF-8" standalone="no"?>
<svg
   xmlns:sketch="http://www.bohemiancoding.com/sketch/ns"
   xmlns:dc="http://purl.org/dc/elements/1.1/"
   xmlns:cc="http://creativecommons.org/ns#"
   xmlns:rdf="http://www.w3.org/1999/02/22-rdf-syntax-ns#"
   xmlns:svg="http://www.w3.org/2000/svg"
   xmlns="http://www.w3.org/2000/svg"
   xmlns:xlink="http://www.w3.org/1999/xlink"
   xmlns:sodipodi="http://sodipodi.sourceforge.net/DTD/sodipodi-0.dtd"
   xmlns:inkscape="http://www.inkscape.org/namespaces/inkscape"
   width="315px"
   height="67px"
   viewBox="0 0 315 67"
   version="1.1"
   id="svg2"
   inkscape:version="0.91 r13725"
   sodipodi:docname="alice-goldsack-logo-wide.svg">
  <metadata
     id="metadata104">
    <rdf:RDF>
      <cc:Work
         rdf:about="">
        <dc:format>image/svg+xml</dc:format>
        <dc:type
           rdf:resource="http://purl.org/dc/dcmitype/StillImage" />
        <dc:title>Artboard 1</dc:title>
      </cc:Work>
    </rdf:RDF>
  </metadata>
  <sodipodi:namedview
     pagecolor="#ffffff"
     bordercolor="#666666"
     borderopacity="1"
     objecttolerance="10"
     gridtolerance="10"
     guidetolerance="10"
     inkscape:pageopacity="0"
     inkscape:pageshadow="2"
     inkscape:window-width="1138"
     inkscape:window-height="729"
     id="namedview102"
     showgrid="false"
     inkscape:zoom="0.98412698"
     inkscape:cx="128.16885"
     inkscape:cy="10.805929"
     inkscape:window-x="71"
     inkscape:window-y="11"
     inkscape:window-maximized="0"
     inkscape:current-layer="Page-1" />
  <!-- Generator: Sketch 3.3.2 (12043) - http://www.bohemiancoding.com/sketch -->
  <title
     id="title4">Artboard 1</title>
  <desc
     id="desc6">Created with Sketch.</desc>
  <defs
     id="defs8">
    <linearGradient
       x1="28.5"
       y1="0"
       x2="49.714843"
       y2="45.162107"
       id="linearGradient-1"
       gradientUnits="userSpaceOnUse">
      <stop
         stop-color="#FFFFFF"
         stop-opacity="0.5"
         offset="0%"
         id="stop11" />
      <stop
         stop-color="#000000"
         stop-opacity="0.5"
         offset="100%"
         id="stop13" />
    </linearGradient>
    <filter
       x="-50%"
       y="-50%"
       width="200%"
       height="200%"
       filterUnits="objectBoundingBox"
       id="filter-2">
      <feOffset
         dx="0"
         dy="2"
         in="SourceAlpha"
         result="shadowOffsetOuter1"
         id="feOffset16" />
      <feGaussianBlur
         stdDeviation="2"
         in="shadowOffsetOuter1"
         result="shadowBlurOuter1"
         id="feGaussianBlur18" />
      <feColorMatrix
         values="0 0 0 0 0   0 0 0 0 0   0 0 0 0 0  0 0 0 0.154769588 0"
         in="shadowBlurOuter1"
         type="matrix"
         result="shadowMatrixOuter1"
         id="feColorMatrix20" />
      <feMerge
         id="feMerge22">
        <feMergeNode
           in="shadowMatrixOuter1"
           id="feMergeNode24" />
        <feMergeNode
           in="SourceGraphic"
           id="feMergeNode26" />
      </feMerge>
    </filter>
    <rect
       id="path-3"
       x="20"
       y="0"
       width="17"
       height="17" />
    <linearGradient
       x1="28.5"
       y1="20"
       x2="59.321287"
       y2="50.319335"
       id="linearGradient-4"
       gradientUnits="userSpaceOnUse">
      <stop
         stop-color="#FFFFFF"
         stop-opacity="0.5"
         offset="0%"
         id="stop30" />
      <stop
         stop-color="#000000"
         stop-opacity="0.5"
         offset="100%"
         id="stop32" />
    </linearGradient>
    <filter
       x="-50%"
       y="-50%"
       width="200%"
       height="200%"
       filterUnits="objectBoundingBox"
       id="filter-5">
      <feOffset
         dx="0"
         dy="2"
         in="SourceAlpha"
         result="shadowOffsetOuter1"
         id="feOffset35" />
      <feGaussianBlur
         stdDeviation="2"
         in="shadowOffsetOuter1"
         result="shadowBlurOuter1"
         id="feGaussianBlur37" />
      <feColorMatrix
         values="0 0 0 0 0   0 0 0 0 0   0 0 0 0 0  0 0 0 0.118866055 0"
         in="shadowBlurOuter1"
         type="matrix"
         result="shadowMatrixOuter1"
         id="feColorMatrix39" />
      <feMerge
         id="feMerge41">
        <feMergeNode
           in="shadowMatrixOuter1"
           id="feMergeNode43" />
        <feMergeNode
           in="SourceGraphic"
           id="feMergeNode45" />
      </feMerge>
    </filter>
    <rect
       id="path-6"
       x="20"
       y="20"
       width="17"
       height="17" />
    <linearGradient
       x1="8.5"
       y1="20"
       x2="31.071289"
       y2="65.022461"
       id="linearGradient-7"
       gradientUnits="userSpaceOnUse">
      <stop
         stop-color="#FFFFFF"
         stop-opacity="0.5"
         offset="0%"
         id="stop49" />
      <stop
         stop-color="#000000"
         stop-opacity="0.5"
         offset="100%"
         id="stop51" />
    </linearGradient>
    <filter
       x="-50%"
       y="-50%"
       width="200%"
       height="200%"
       filterUnits="objectBoundingBox"
       id="filter-8">
      <feOffset
         dx="0"
         dy="2"
         in="SourceAlpha"
         result="shadowOffsetOuter1"
         id="feOffset54" />
      <feGaussianBlur
         stdDeviation="2"
         in="shadowOffsetOuter1"
         result="shadowBlurOuter1"
         id="feGaussianBlur56" />
      <feColorMatrix
         values="0 0 0 0 0   0 0 0 0 0   0 0 0 0 0  0 0 0 0.0991508152 0"
         in="shadowBlurOuter1"
         type="matrix"
         result="shadowMatrixOuter1"
         id="feColorMatrix58" />
      <feMerge
         id="feMerge60">
        <feMergeNode
           in="shadowMatrixOuter1"
           id="feMergeNode62" />
        <feMergeNode
           in="SourceGraphic"
           id="feMergeNode64" />
      </feMerge>
    </filter>
    <rect
       id="path-9"
       x="0"
       y="20"
       width="17"
       height="17" />
  </defs>
  <g
     id="Page-1"
     stroke="none"
     stroke-width="1"
     fill="none"
     fill-rule="evenodd"
     sketch:type="MSPage">
    <g
       transform="scale(1.0095313,0.99055868)"
       style="font-weight:bold;font-size:44.83197403px;font-family:'Abadi MT Condensed Extra Bold'"
       id="Alicegoldsack">
      <path
         d="m 71.838966,13.082145 7.070667,0 8.033855,30.537404 -7.749277,0 -1.07264,-6.0637 -5.822903,0 -1.138311,6.0637 -7.289574,0 7.968183,-30.537404 z m 3.393044,8.340323 -1.948264,10.660728 3.852748,0 -1.904484,-10.660728 z"
         style="fill:#fffad2"
         id="path8239" />
      <path
         d="m 89.439017,13.082145 6.961215,0 0,30.537404 -6.961215,0 0,-30.537404 z"
         style="fill:#fffad2"
         id="path8241" />
      <path
         d="m 104.69677,12.578661 q 1.42289,0 2.5831,1.028858 1.1602,1.028859 1.1602,2.670655 0,1.554233 -1.11642,2.626873 -1.09453,1.07264 -2.62688,1.07264 -1.57612,0 -2.67065,-1.09453 -1.07264,-1.116421 -1.07264,-2.626874 0,-1.532342 1.11642,-2.604982 1.11642,-1.07264 2.62687,-1.07264 z m -3.50249,10.179134 6.93932,0 0,20.861754 -6.93932,0 0,-20.861754 z"
         style="fill:#fffad2"
         id="path8243" />
      <path
         d="m 125.14261,42.809596 q -2.25474,1.291546 -4.42191,1.291546 -3.80896,0 -6.43584,-3.130357 -2.60498,-3.152248 -2.60498,-7.749277 0,-4.575138 2.67065,-7.749277 2.69255,-3.196029 6.72042,-3.196029 1.77314,0 4.07166,0.875624 l 0,6.282606 q -1.42289,-1.028859 -2.53932,-1.028859 -1.59801,0 -2.69254,1.313437 -1.09453,1.313437 -1.09453,3.327373 0,2.013936 1.09453,3.393045 1.11642,1.357218 2.60498,1.357218 1.29155,0 2.62688,-1.160203 l 0,6.173153 z"
         style="fill:#fffad2"
         id="path8245" />
      <path
         d="m 145.78545,41.846409 q -4.00598,2.254733 -7.4647,2.254733 -4.50946,0 -7.33335,-3.042795 -2.802,-3.042795 -2.802,-7.793058 0,-4.597028 2.64876,-7.793058 2.67066,-3.196029 7.11445,-3.196029 3.94031,0 6.3045,2.736326 2.36418,2.736327 2.36418,7.333355 l 0,1.729359 -11.20799,0 q 0.48159,2.101499 1.6418,3.152248 1.1602,1.050749 2.99901,1.050749 1.42289,0 2.60498,-0.634827 1.1821,-0.634828 3.13036,-2.276624 l 0,6.479621 z m -5.25375,-11.470681 0,-0.700499 q 0,-1.42289 -0.74428,-2.429858 -0.74428,-1.006968 -1.8607,-1.006968 -1.31344,0 -2.03583,1.028858 -0.7005,1.028859 -0.80995,3.108467 l 5.45076,0 z"
         style="fill:#fffad2"
         id="path8247" />
      <path
         d="m 160.47405,41.102128 q -0.89751,1.247765 -1.99204,1.882593 -1.09453,0.634828 -2.40797,0.634828 -2.93334,0 -5.05673,-3.064686 -2.12339,-3.064686 -2.12339,-7.377136 0,-4.202998 2.14528,-7.552262 2.14528,-3.349263 5.49454,-3.349263 1.26966,0 2.36419,0.547265 1.09453,0.525375 2.01393,1.619905 l 1.8826,-1.685577 4.64081,0 0,20.029911 q 0,4.6627 -2.5831,7.836839 -2.58309,3.196029 -7.33335,3.196029 -3.48061,0 -7.24579,-1.948264 l 0,-6.873653 q 3.30548,2.583093 5.75723,2.583093 1.90448,0 3.17414,-1.291546 1.26965,-1.269656 1.26965,-3.217921 l 0,-1.970155 z m 0,-11.974165 q -0.48159,-0.547265 -0.96319,-0.809952 -0.48159,-0.262688 -0.96318,-0.262688 -1.20399,0 -1.90449,1.313437 -0.7005,1.291546 -0.7005,3.393045 0,2.14528 0.67861,3.480607 0.67861,1.313437 1.77314,1.313437 1.05075,0 1.55424,-1.006968 0.52537,-1.006968 0.52537,-2.999014 l 0,-4.421904 z"
         style="fill:#ffe200"
         id="path8249" />
      <path
         d="m 180.61341,22.276202 q 4.31245,0 7.07067,2.845779 2.75822,2.84578 2.75822,7.968183 0,4.859716 -2.64876,7.946293 -2.64877,3.064685 -7.20202,3.064685 -4.55324,0 -7.09255,-3.042795 -2.53932,-3.042795 -2.53932,-7.749277 0,-4.903497 2.64877,-7.968182 2.67065,-3.064686 7.00499,-3.064686 z m 0.0657,5.341309 q -1.29155,0 -1.94827,1.400999 -0.65672,1.379109 -0.65672,4.159217 0,2.736326 0.63483,4.115435 0.65672,1.379108 1.94827,1.379108 1.31343,0 1.94826,-1.357218 0.65672,-1.379108 0.65672,-4.115435 0,-2.801998 -0.65672,-4.181107 -0.63483,-1.400999 -1.92637,-1.400999 z"
         style="fill:#ffffff"
         id="path8251" />
      <path
         d="m 194.05425,13.082145 6.96121,0 0,30.537404 -6.96121,0 0,-30.537404 z"
         style="fill:#ffffff"
         id="path8253" />
      <path
         d="m 216.36078,13.082145 6.98311,0 0,30.537404 -6.15127,0 -0.63482,-2.429858 q -0.98508,1.44478 -2.14528,2.189061 -1.16021,0.72239 -2.49553,0.72239 -3.17414,0 -5.16619,-3.23981 -1.99204,-3.261702 -1.99204,-7.530371 0,-4.443794 2.12339,-7.749277 2.14528,-3.305482 5.45076,-3.305482 1.00697,0 2.01394,0.437812 1.00696,0.415922 2.01393,1.291546 l 0,-10.923415 z m 0,16.155272 q -0.4597,-0.612938 -0.94129,-0.919406 -0.4816,-0.306469 -1.00697,-0.306469 -1.20399,0 -1.92638,1.379109 -0.72239,1.379108 -0.72239,3.655732 0,2.189061 0.67861,3.59006 0.7005,1.379109 1.83881,1.379109 0.98508,0 1.53235,-1.006968 0.54726,-1.028859 0.54726,-2.451749 l 0,-5.319418 z"
         style="fill:#ffffff"
         id="path8255" />
      <path
         d="m 226.8245,35.935944 q 3.34926,2.758217 5.80101,2.758217 0.94129,0 1.6199,-0.481593 0.67861,-0.503485 0.67861,-1.313437 0,-0.612937 -0.54726,-1.028859 -0.52538,-0.437812 -1.99205,-1.006968 -3.5025,-1.357218 -4.53136,-2.955233 -1.02885,-1.598014 -1.02885,-3.174139 0,-2.911451 2.38607,-4.684591 2.40797,-1.773139 5.8448,-1.773139 2.97712,0 5.88857,1.357218 l 0,6.195043 q -2.42986,-2.101499 -4.6627,-2.101499 -1.00697,0 -1.51045,0.328359 -0.50349,0.32836 -0.50349,1.006969 0,0.919405 2.16717,1.619905 5.88858,1.948264 5.88858,6.238824 0,3.020905 -2.42986,5.100513 -2.40797,2.079608 -6.21693,2.079608 -3.19603,0 -6.85176,-1.816921 l 0,-6.348277 z"
         style="fill:#ffffff"
         id="path8257" />
      <path
         d="m 246.85441,23.961779 q 3.56817,-1.685577 6.7642,-1.685577 2.36419,0 4.11543,0.831843 1.77314,0.831843 2.97713,2.692545 1.20398,1.860702 1.20398,4.750263 l 0,7.004996 q 0,3.042795 1.24777,6.0637 l -6.96122,0 q -0.39403,-0.875625 -0.63483,-1.992046 -1.02886,1.225874 -2.16717,1.860702 -1.11642,0.612937 -2.36418,0.612937 -2.42986,0 -4.35624,-1.926374 -1.90448,-1.948264 -1.90448,-4.728372 0,-6.260715 10.79207,-7.639824 -0.24079,-1.138311 -1.18209,-1.707467 -0.9413,-0.569156 -2.58309,-0.569156 -2.40797,0 -4.94728,1.970155 l 0,-5.538325 z m 8.71246,9.30351 q -4.37812,0.394031 -4.37812,3.261701 0,1.07264 0.65672,1.816921 0.65672,0.744281 1.55423,0.744281 1.05075,0 1.59802,-0.897515 0.56915,-0.897515 0.56915,-2.254733 l 0,-2.670655 z"
         style="fill:#ffffff"
         id="path8259" />
      <path
         d="m 278.355,42.809596 q -2.25474,1.291546 -4.42191,1.291546 -3.80896,0 -6.43584,-3.130357 -2.60498,-3.152248 -2.60498,-7.749277 0,-4.575138 2.67065,-7.749277 2.69255,-3.196029 6.72042,-3.196029 1.77314,0 4.07166,0.875624 l 0,6.282606 q -1.42289,-1.028859 -2.53931,-1.028859 -1.59802,0 -2.69255,1.313437 -1.09453,1.313437 -1.09453,3.327373 0,2.013936 1.09453,3.393045 1.11642,1.357218 2.60498,1.357218 1.29155,0 2.62688,-1.160203 l 0,6.173153 z"
         style="fill:#ffffff"
         id="path8261" />
      <path
         d="m 282.40476,13.082145 6.91743,0 0,16.002037 3.32737,-6.326387 6.47963,0 -4.00599,5.822903 4.85972,15.038851 -7.33336,0 -2.36418,-7.924402 -0.96319,1.379109 0,6.545293 -6.91743,0 0,-30.537404 z"
         style="fill:#ffffff"
         id="path8263" />
    </g>
    <g
       id="JEWELERY-DESIGN-&amp;-TU"
       style="font-weight:bold;font-size:10.64000034px;font-family:'Open Sans Condensed';fill:#ffd621"
       transform="matrix(1.0177486,0,0,0.99862155,-7.5160145,5.0164679)">
      <path
         inkscape:connector-curvature="0"
         id="path8133"
         d="m 181.07273,58.192422 q -0.5507,0 -0.87281,-0.129883 l 0,-1.231289 q 0.3377,0.103906 0.63903,0.103906 0.43121,0 0.62863,-0.275351 0.20262,-0.275352 0.20262,-0.82086 l 0,-7.434492 1.41312,0 0,7.361758 q 0,0.748125 -0.25457,1.298828 -0.24937,0.550703 -0.71176,0.836445 -0.45719,0.290938 -1.04426,0.290938 z" />
      <path
         inkscape:connector-curvature="0"
         id="path8135"
         d="m 187.83703,56 -3.42371,0 0,-7.595547 3.42371,0 0,1.220898 -2.01058,0 0,1.807969 1.86511,0 0,1.226094 -1.86511,0 0,2.104102 2.01058,0 0,1.236484 z" />
      <path
         inkscape:connector-curvature="0"
         id="path8137"
         d="m 195.24035,56 -1.7664,0 -0.74293,-3.97961 q -0.17145,-0.815664 -0.24418,-1.927461 l -0.0416,0.384454 -0.213,1.563789 L 191.51012,56 l -1.76641,0 -1.37676,-7.595547 1.38715,0 0.68059,4.286133 q 0.0987,0.644219 0.26496,2.020976 0.12988,-1.392343 0.24418,-1.989804 l 0.81047,-4.317305 1.46508,0 0.81046,4.317305 q 0.16106,0.961133 0.25457,2.000195 0.18184,-1.537812 0.26497,-2.031367 l 0.6598,-4.286133 1.39754,0 L 195.24035,56 Z" />
      <path
         inkscape:connector-curvature="0"
         id="path8139"
         d="m 200.80453,56 -3.42371,0 0,-7.595547 3.42371,0 0,1.220898 -2.01058,0 0,1.807969 1.86511,0 0,1.226094 -1.86511,0 0,2.104102 2.01058,0 0,1.236484 z" />
      <path
         inkscape:connector-curvature="0"
         id="path8141"
         d="m 201.91113,56 0,-7.595547 1.41313,0 0,6.359063 1.95863,0 0,1.236484 -3.37176,0 z" />
      <path
         inkscape:connector-curvature="0"
         id="path8143"
         d="m 209.61578,56 -3.42371,0 0,-7.595547 3.42371,0 0,1.220898 -2.01058,0 0,1.807969 1.86511,0 0,1.226094 -1.86511,0 0,2.104102 2.01058,0 0,1.236484 z" />
      <path
         inkscape:connector-curvature="0"
         id="path8145"
         d="m 212.13551,53.043867 0,2.956133 -1.41313,0 0,-7.595547 1.84954,0 q 1.17414,0 1.73003,0.555898 0.5611,0.555899 0.5611,1.698868 0,1.439101 -0.97153,2.010586 L 215.35141,56 l -1.51184,0 -1.20012,-2.956133 -0.50394,0 z m 0,-1.215703 0.36367,0 q 0.49875,0 0.71695,-0.280547 0.21821,-0.285742 0.21821,-0.846836 0,-0.581875 -0.23379,-0.826055 -0.2286,-0.249375 -0.71176,-0.249375 l -0.35328,0 0,2.202813 z" />
      <path
         inkscape:connector-curvature="0"
         id="path8147"
         d="m 217.87113,51.402148 1.01309,-2.997695 1.48066,0 -1.80277,4.551094 0,3.044453 -1.39234,0 0,-2.987305 -1.79758,-4.608242 1.49105,0 1.00789,2.997695 z" />
      <path
         inkscape:connector-curvature="0"
         id="path8149"
         d="m 228.50075,52.129492 q 0,1.880703 -0.76891,2.878203 Q 226.96813,56 225.52903,56 l -1.85993,0 0,-7.595547 2.03137,0 q 1.32481,0 2.06254,0.981914 0.73774,0.976719 0.73774,2.743125 z m -1.4495,0.04156 q 0,-2.545704 -1.40273,-2.545704 l -0.56629,0 0,5.138165 0.45719,0 q 0.7741,0 1.14297,-0.644219 0.36886,-0.649414 0.36886,-1.948242 z" />
      <path
         inkscape:connector-curvature="0"
         id="path8151"
         d="m 233.03625,56 -3.42371,0 0,-7.595547 3.42371,0 0,1.220898 -2.01058,0 0,1.807969 1.86511,0 0,1.226094 -1.86511,0 0,2.104102 2.01058,0 0,1.236484 z" />
      <path
         inkscape:connector-curvature="0"
         id="path8153"
         d="m 237.60293,53.906289 q 0,1.065039 -0.54031,1.631328 -0.53512,0.566289 -1.54821,0.566289 -0.9923,0 -1.68847,-0.389648 l 0,-1.397539 q 0.85203,0.555898 1.56379,0.555898 0.40523,0 0.60785,-0.223398 0.20781,-0.223399 0.20781,-0.607852 0,-0.379258 -0.24418,-0.690976 -0.24418,-0.316915 -0.80527,-0.701368 -0.48836,-0.337695 -0.74293,-0.644218 -0.24938,-0.311719 -0.38965,-0.696172 -0.13508,-0.384453 -0.13508,-0.893594 0,-0.976719 0.54031,-1.548203 0.54551,-0.571485 1.45989,-0.571485 0.87281,0 1.67808,0.48836 l -0.46758,1.132578 q -0.24937,-0.145469 -0.52472,-0.259766 -0.27016,-0.114297 -0.58188,-0.114297 -0.34289,0 -0.52992,0.228594 -0.18183,0.223399 -0.18183,0.613047 0,0.384453 0.2182,0.670195 0.2234,0.285743 0.7741,0.649414 0.74293,0.49875 1.03387,1.018282 0.29613,0.519531 0.29613,1.184531 z" />
      <path
         inkscape:connector-curvature="0"
         id="path8155"
         d="m 238.80305,56 0,-7.595547 1.33,0 0,7.595547 -1.33,0 z" />
      <path
         inkscape:connector-curvature="0"
         id="path8157"
         d="m 244.02434,51.786601 2.3223,0 0,3.896485 q -0.98711,0.42082 -2.0989,0.42082 -1.32481,0 -2.04176,-1.00789 -0.71176,-1.007891 -0.71176,-2.90418 0,-1.82875 0.81567,-2.862617 0.82086,-1.033868 2.29113,-1.033868 0.90918,0 1.73523,0.467578 l -0.44679,1.15336 q -0.64422,-0.374063 -1.20532,-0.374063 -0.80527,0 -1.27804,0.722149 -0.46758,0.716953 -0.46758,1.958633 0,1.278047 0.33769,1.958633 0.34289,0.680586 0.99231,0.680586 0.34289,0 0.69617,-0.08832 l 0,-1.74043 -0.94035,0 0,-1.246875 z" />
      <path
         inkscape:connector-curvature="0"
         id="path8159"
         d="m 252.84598,56 -1.72485,0 -2.34828,-5.501836 -0.0675,0 q 0.12989,0.628633 0.12989,1.350781 l 0,4.151055 -1.30922,0 0,-7.595547 1.73523,0 2.3275,5.444688 0.0572,0 q -0.0987,-0.545508 -0.0987,-1.298829 l 0,-4.145859 1.29883,0 0,7.595547 z" />
      <path
         inkscape:connector-curvature="0"
         id="path8161"
         d="m 260.67532,56 -0.36887,-0.529922 q -0.70656,0.633828 -1.75602,0.633828 -0.9975,0 -1.5482,-0.566289 -0.5507,-0.566289 -0.5507,-1.568984 0,-1.288438 1.26765,-2.16125 -0.40004,-0.618243 -0.52992,-0.976719 -0.12988,-0.358477 -0.12988,-0.758516 0,-0.810469 0.50394,-1.293633 0.50395,-0.483164 1.32481,-0.483164 0.78969,0 1.25727,0.451993 0.46757,0.446796 0.46757,1.241679 0,0.545508 -0.28574,1.039063 -0.28574,0.488359 -0.95594,0.992304 l 1.05985,1.491055 q 0.17664,-0.322109 0.27535,-0.716953 0.0987,-0.394844 0.17144,-0.784492 l 1.20532,0 q -0.19743,1.454687 -0.86243,2.587266 L 262.22872,56 l -1.5534,0 z m -2.82625,-2.16125 q 0,0.483164 0.22859,0.758516 0.22859,0.275351 0.62344,0.275351 0.51953,0 0.91437,-0.384453 l -1.24687,-1.797578 q -0.51953,0.467578 -0.51953,1.148164 z m 1.48586,-3.725039 q 0,-0.337696 -0.14028,-0.48836 -0.13508,-0.155859 -0.3273,-0.155859 -0.23899,0 -0.37926,0.171445 -0.14027,0.16625 -0.14027,0.48836 0,0.285742 0.11949,0.529922 0.12469,0.238984 0.30652,0.488359 0.31692,-0.24418 0.43641,-0.472773 0.12469,-0.228594 0.12469,-0.561094 z" />
      <path
         inkscape:connector-curvature="0"
         id="path8163"
         d="m 267.97993,56 -1.40793,0 0,-6.353867 -1.45469,0 0,-1.24168 4.3173,0 0,1.24168 -1.45468,0 0,6.353867 z" />
      <path
         inkscape:connector-curvature="0"
         id="path8165"
         d="m 274.93125,48.404453 0,4.914766 q 0,1.355976 -0.61305,2.072929 -0.61304,0.711758 -1.7716,0.711758 -1.13258,0 -1.72484,-0.706562 -0.59227,-0.711758 -0.59227,-2.098907 l 0,-4.893984 1.40274,0 0,4.997891 q 0,1.449492 0.96113,1.449492 0.4468,0 0.69098,-0.368867 0.24418,-0.368867 0.24418,-1.049453 l 0,-5.029063 1.40273,0 z" />
      <path
         inkscape:connector-curvature="0"
         id="path8167"
         d="m 278.57836,56 -1.40793,0 0,-6.353867 -1.45469,0 0,-1.24168 4.31731,0 0,1.24168 -1.45469,0 0,6.353867 z" />
      <path
         inkscape:connector-curvature="0"
         id="path8169"
         d="m 281.11368,56 0,-7.595547 1.33,0 0,7.595547 -1.33,0 z" />
      <path
         inkscape:connector-curvature="0"
         id="path8171"
         d="m 286.37133,56 -1.40793,0 0,-6.353867 -1.45469,0 0,-1.24168 4.31731,0 0,1.24168 -1.45469,0 0,6.353867 z" />
      <path
         inkscape:connector-curvature="0"
         id="path8173"
         d="m 288.90665,56 0,-7.595547 1.33,0 0,7.595547 -1.33,0 z" />
      <path
         inkscape:connector-curvature="0"
         id="path8175"
         d="m 297.05809,52.191836 q 0,1.885898 -0.70657,2.898984 -0.70656,1.013086 -2.02097,1.013086 -1.31961,0 -2.02617,-1.00789 -0.70657,-1.013086 -0.70657,-2.914571 0,-1.885898 0.70657,-2.888594 0.70656,-1.00789 2.03656,-1.00789 1.31441,0 2.01578,1.013086 0.70137,1.00789 0.70137,2.893789 z m -4.01598,0 q 0,1.298828 0.32731,1.979414 0.3273,0.680586 0.96113,0.680586 1.27805,0 1.27805,-2.66 0,-2.66 -1.26766,-2.66 -0.64422,0 -0.97152,0.680586 -0.32731,0.67539 -0.32731,1.979414 z" />
      <path
         inkscape:connector-curvature="0"
         id="path8177"
         d="m 303.48989,56 -1.72484,0 -2.34828,-5.501836 -0.0675,0 q 0.12988,0.628633 0.12988,1.350781 l 0,4.151055 -1.30922,0 0,-7.595547 1.73523,0 2.3275,5.444688 0.0571,0 q -0.0987,-0.545508 -0.0987,-1.298829 l 0,-4.145859 1.29883,0 0,7.595547 z" />
    </g>
    <g
       transform="matrix(1.0177486,0,0,0.99862155,16.909952,13.00544)"
       sketch:type="MSLayerGroup"
       id="Rectangle-1-+-Rectangle-1-Copy-+-Rectangle-1-Copy-2">
      <g
         style="filter:url(#filter-2)"
         id="Rectangle-1">
        <use
           height="100%"
           width="100%"
           y="0"
           x="0"
           style="fill:#ffd621"
           id="use88"
           xlink:href="#path-3"
           sketch:type="MSShapeGroup" />
        <use
           height="100%"
           width="100%"
           y="0"
           x="0"
           style="fill:url(#linearGradient-1)"
           id="use90"
           xlink:href="#path-3" />
      </g>
      <g
         style="filter:url(#filter-5)"
         id="Rectangle-1-Copy">
        <use
           height="100%"
           width="100%"
           y="0"
           x="0"
           style="fill:#ffe9c9"
           id="use93"
           xlink:href="#path-6"
           sketch:type="MSShapeGroup" />
        <use
           height="100%"
           width="100%"
           y="0"
           x="0"
           style="fill:url(#linearGradient-4)"
           id="use95"
           xlink:href="#path-6" />
      </g>
      <g
         style="filter:url(#filter-8)"
         id="Rectangle-1-Copy-2">
        <use
           height="100%"
           width="100%"
           y="0"
           x="0"
           style="fill:#ffffff"
           id="use98"
           xlink:href="#path-9"
           sketch:type="MSShapeGroup" />
        <use
           height="100%"
           width="100%"
           y="0"
           x="0"
           style="fill:url(#linearGradient-7)"
           id="use100"
           xlink:href="#path-9" />
      </g>
    </g>
  </g>
</svg>
