<?xml version="1.0" encoding="UTF-8" standalone="no"?>
<svg
   xmlns:sketch="http://www.bohemiancoding.com/sketch/ns"
   xmlns:dc="http://purl.org/dc/elements/1.1/"
   xmlns:cc="http://creativecommons.org/ns#"
   xmlns:rdf="http://www.w3.org/1999/02/22-rdf-syntax-ns#"
   xmlns:svg="http://www.w3.org/2000/svg"
   xmlns="http://www.w3.org/2000/svg"
   xmlns:xlink="http://www.w3.org/1999/xlink"
   xmlns:sodipodi="http://sodipodi.sourceforge.net/DTD/sodipodi-0.dtd"
   xmlns:inkscape="http://www.inkscape.org/namespaces/inkscape"
   width="315px"
   height="67px"
   viewBox="0 0 315 67"
   version="1.1"
   id="svg2"
   inkscape:version="0.91 r13725"
   sodipodi:docname="alice-goldsack-logo-wide.svg">
  <metadata
     id="metadata104">
    <rdf:RDF>
      <cc:Work
         rdf:about="">
        <dc:format>image/svg+xml</dc:format>
        <dc:type
           rdf:resource="http://purl.org/dc/dcmitype/StillImage" />
        <dc:title>Artboard 1</dc:title>
      </cc:Work>
    </rdf:RDF>
  </metadata>
  <sodipodi:namedview
     pagecolor="#ffffff"
     bordercolor="#666666"
     borderopacity="1"
     objecttolerance="10"
     gridtolerance="10"
     guidetolerance="10"
     inkscape:pageopacity="0"
     inkscape:pageshadow="2"
     inkscape:window-width="1138"
     inkscape:window-height="729"
     id="namedview102"
     showgrid="false"
     inkscape:zoom="2.7835315"
     inkscape:cx="214.38195"
     inkscape:cy="10.805929"
     inkscape:window-x="71"
     inkscape:window-y="11"
     inkscape:window-maximized="0"
     inkscape:current-layer="Page-1" />
  <!-- Generator: Sketch 3.3.2 (12043) - http://www.bohemiancoding.com/sketch -->
  <title
     id="title4">Artboard 1</title>
  <desc
     id="desc6">Created with Sketch.</desc>
  <defs
     id="defs8">
    <linearGradient
       x1="28.5"
       y1="0"
       x2="49.714843"
       y2="45.162107"
       id="linearGradient-1"
       gradientUnits="userSpaceOnUse">
      <stop
         stop-color="#FFFFFF"
         stop-opacity="0.5"
         offset="0%"
         id="stop11" />
      <stop
         stop-color="#000000"
         stop-opacity="0.5"
         offset="100%"
         id="stop13" />
    </linearGradient>
    <filter
       x="-50%"
       y="-50%"
       width="200%"
       height="200%"
       filterUnits="objectBoundingBox"
       id="filter-2">
      <feOffset
         dx="0"
         dy="2"
         in="SourceAlpha"
         result="shadowOffsetOuter1"
         id="feOffset16" />
      <feGaussianBlur
         stdDeviation="2"
         in="shadowOffsetOuter1"
         result="shadowBlurOuter1"
         id="feGaussianBlur18" />
      <feColorMatrix
         values="0 0 0 0 0   0 0 0 0 0   0 0 0 0 0  0 0 0 0.154769588 0"
         in="shadowBlurOuter1"
         type="matrix"
         result="shadowMatrixOuter1"
         id="feColorMatrix20" />
      <feMerge
         id="feMerge22">
        <feMergeNode
           in="shadowMatrixOuter1"
           id="feMergeNode24" />
        <feMergeNode
           in="SourceGraphic"
           id="feMergeNode26" />
      </feMerge>
    </filter>
    <rect
       id="path-3"
       x="20"
       y="0"
       width="17"
       height="17" />
    <linearGradient
       x1="28.5"
       y1="20"
       x2="59.321287"
       y2="50.319335"
       id="linearGradient-4"
       gradientUnits="userSpaceOnUse">
      <stop
         stop-color="#FFFFFF"
         stop-opacity="0.5"
         offset="0%"
         id="stop30" />
      <stop
         stop-color="#000000"
         stop-opacity="0.5"
         offset="100%"
         id="stop32" />
    </linearGradient>
    <filter
       x="-50%"
       y="-50%"
       width="200%"
       height="200%"
       filterUnits="objectBoundingBox"
       id="filter-5">
      <feOffset
         dx="0"
         dy="2"
         in="SourceAlpha"
         result="shadowOffsetOuter1"
         id="feOffset35" />
      <feGaussianBlur
         stdDeviation="2"
         in="shadowOffsetOuter1"
         result="shadowBlurOuter1"
         id="feGaussianBlur37" />
      <feColorMatrix
         values="0 0 0 0 0   0 0 0 0 0   0 0 0 0 0  0 0 0 0.118866055 0"
         in="shadowBlurOuter1"
         type="matrix"
         result="shadowMatrixOuter1"
         id="feColorMatrix39" />
      <feMerge
         id="feMerge41">
        <feMergeNode
           in="shadowMatrixOuter1"
           id="feMergeNode43" />
        <feMergeNode
           in="SourceGraphic"
           id="feMergeNode45" />
      </feMerge>
    </filter>
    <rect
       id="path-6"
       x="20"
       y="20"
       width="17"
       height="17" />
    <linearGradient
       x1="8.5"
       y1="20"
       x2="31.071289"
       y2="65.022461"
       id="linearGradient-7"
       gradientUnits="userSpaceOnUse">
      <stop
         stop-color="#FFFFFF"
         stop-opacity="0.5"
         offset="0%"
         id="stop49" />
      <stop
         stop-color="#000000"
         stop-opacity="0.5"
         offset="100%"
         id="stop51" />
    </linearGradient>
    <filter
       x="-50%"
       y="-50%"
       width="200%"
       height="200%"
       filterUnits="objectBoundingBox"
       id="filter-8">
      <feOffset
         dx="0"
         dy="2"
         in="SourceAlpha"
         result="shadowOffsetOuter1"
         id="feOffset54" />
      <feGaussianBlur
         stdDeviation="2"
         in="shadowOffsetOuter1"
         result="shadowBlurOuter1"
         id="feGaussianBlur56" />
      <feColorMatrix
         values="0 0 0 0 0   0 0 0 0 0   0 0 0 0 0  0 0 0 0.0991508152 0"
         in="shadowBlurOuter1"
         type="matrix"
         result="shadowMatrixOuter1"
         id="feColorMatrix58" />
      <feMerge
         id="feMerge60">
        <feMergeNode
           in="shadowMatrixOuter1"
           id="feMergeNode62" />
        <feMergeNode
           in="SourceGraphic"
           id="feMergeNode64" />
      </feMerge>
    </filter>
    <rect
       id="path-9"
       x="0"
       y="20"
       width="17"
       height="17" />
  </defs>
  <g
     id="Page-1"
     stroke="none"
     stroke-width="1"
     fill="none"
     fill-rule="evenodd"
     sketch:type="MSPage">
    <g
       id="Artboard-1"
       sketch:type="MSArtboardGroup"
       transform="matrix(1.0177486,0,0,0.99862155,-2.4864324,-0.01311451)">
      <text
         id="Alicegoldsack"
         sketch:type="MSTextLayer"
         font-size="44.4700012"
         font-style="condensed"
         font-weight="bold"
         style="font-weight:bold;font-size:44.47000122px;font-family:'Abadi MT Condensed Extra Bold'">
        <tspan
           x="72"
           y="44"
           id="tspan70"
           style="fill:#fffad2">Alice</tspan>
        <tspan
           x="155.38126"
           y="44"
           id="tspan72"
           style="fill:#ffe200">g</tspan>
        <tspan
           x="177.16026"
           y="44"
           id="tspan74"
           style="fill:#ffffff">oldsack</tspan>
      </text>
      <g
         style="font-weight:bold;font-size:44.47000122px;font-family:'Abadi MT Condensed Extra Bold';fill:#fffad2;fill-opacity:0.80180024"
         id="Alicegoldsack-Copy">
        <path
           d="m 80.055845,13.709154 7.013579,0 L 95.038414,44 l -7.686709,0 -1.06398,-6.014741 -5.775889,0 L 79.382715,44 72.151997,44 80.055845,13.709154 Z m 3.365649,8.272984 -1.932534,10.574654 3.821641,0 -1.889107,-10.574654 z"
           id="path3433"
           inkscape:connector-curvature="0" />
        <path
           d="m 97.513794,13.709154 6.905006,0 0,30.290846 -6.905006,0 0,-30.290846 z"
           id="path3435"
           inkscape:connector-curvature="0" />
        <path
           d="m 112.64836,13.209735 q 1.4114,0 2.56224,1.020552 1.15083,1.020552 1.15083,2.649092 0,1.541685 -1.1074,2.605664 -1.0857,1.06398 -2.60567,1.06398 -1.5634,0 -2.64909,-1.085694 -1.06398,-1.107407 -1.06398,-2.605664 0,-1.51997 1.10741,-2.58395 1.1074,-1.06398 2.60566,-1.06398 z m -3.47422,10.096949 6.8833,0 0,20.693316 -6.8833,0 0,-20.693316 z"
           id="path3437"
           inkscape:connector-curvature="0" />
        <path
           d="m 132.92911,43.196587 q -2.23653,1.281118 -4.3862,1.281118 -3.77821,0 -6.38388,-3.105083 -2.58395,-3.126797 -2.58395,-7.686709 0,-4.538199 2.64909,-7.686709 2.67081,-3.170225 6.66616,-3.170225 1.75882,0 4.03878,0.868555 l 0,6.23188 q -1.4114,-1.020552 -2.51881,-1.020552 -1.58511,0 -2.6708,1.302832 -1.0857,1.302832 -1.0857,3.300508 0,1.997676 1.0857,3.365649 1.1074,1.34626 2.58395,1.34626 1.28111,0 2.60566,-1.150835 l 0,6.123311 z"
           id="path3439"
           inkscape:connector-curvature="0" />
        <path
           d="m 153.40529,42.241177 q -3.97364,2.236528 -7.40443,2.236528 -4.47306,0 -7.27415,-3.018228 -2.77937,-3.018227 -2.77937,-7.730136 0,-4.559913 2.62738,-7.730137 2.64909,-3.170225 7.057,-3.170225 3.9085,0 6.2536,2.714233 2.3451,2.714234 2.3451,7.274146 l 0,1.715396 -11.11751,0 q 0.47771,2.084531 1.62855,3.126797 1.15083,1.042265 2.97479,1.042265 1.41141,0 2.58396,-0.629702 1.17254,-0.629702 3.10508,-2.258242 l 0,6.427305 z m -5.21133,-11.378067 0,-0.694844 q 0,-1.411401 -0.73827,-2.410239 -0.73827,-0.998838 -1.84568,-0.998838 -1.30283,0 -2.01939,1.020552 -0.69484,1.020552 -0.80341,3.083369 l 5.40675,0 z"
           id="path3441"
           inkscape:connector-curvature="0" />
        <path
           d="m 158.7469,24.500947 q 3.53936,-1.671968 6.70959,-1.671968 2.34509,0 4.0822,0.825127 1.75883,0.825127 2.95309,2.670806 1.19426,1.845678 1.19426,4.711909 l 0,6.948438 q 0,3.018227 1.23769,6.014741 l -6.90501,0 q -0.39085,-0.868555 -0.6297,-1.975962 -1.02055,1.215977 -2.14967,1.845679 -1.10741,0.607988 -2.3451,0.607988 -2.41024,0 -4.32106,-1.91082 -1.88911,-1.932535 -1.88911,-4.690196 0,-6.210166 10.70494,-7.57814 -0.23885,-1.129121 -1.17255,-1.693681 -0.9337,-0.564561 -2.56224,-0.564561 -2.38852,0 -4.90733,1.954248 l 0,-5.493608 z m 8.64212,9.228394 q -4.34277,0.390849 -4.34277,3.235366 0,1.063979 0.65141,1.802251 0.65142,0.738271 1.54169,0.738271 1.04226,0 1.58511,-0.890268 0.56456,-0.890269 0.56456,-2.236529 l 0,-2.649091 z"
           id="path3443"
           inkscape:connector-curvature="0" />
        <path
           d="m 167.9753,41.502905 q -0.89027,1.237691 -1.97596,1.867393 Q 164.91364,44 163.61081,44 q -2.90966,0 -5.0159,-3.039941 -2.10625,-3.039942 -2.10625,-7.317574 0,-4.169063 2.12796,-7.491284 2.12796,-3.322222 5.45018,-3.322222 1.25941,0 2.3451,0.542847 1.08569,0.521132 1.99768,1.606826 l 1.86739,-1.671968 4.60334,0 0,19.868189 q 0,4.625054 -2.56224,7.773565 -2.56223,3.170224 -7.27414,3.170224 -3.45251,0 -7.18729,-1.932534 l 0,-6.818154 q 3.27879,2.562236 5.71074,2.562236 1.88911,0 3.14852,-1.281118 1.2594,-1.259404 1.2594,-3.191939 l 0,-1.954248 z m 0,-11.877485 q -0.47771,-0.542847 -0.95541,-0.803414 -0.47771,-0.260566 -0.95541,-0.260566 -1.19426,0 -1.88911,1.302832 -0.69484,1.281118 -0.69484,3.36565 0,2.127959 0.67313,3.452505 0.67313,1.302832 1.75882,1.302832 1.04227,0 1.54169,-0.998838 0.52113,-0.998838 0.52113,-2.9748 l 0,-4.386201 z"
           style="fill:#ffe200"
           id="path3445"
           inkscape:connector-curvature="0" />
        <path
           d="m 187.95206,22.828979 q 4.27763,0 7.01357,2.822803 2.73595,2.822803 2.73595,7.903848 0,4.820478 -2.62738,7.882134 -2.62737,3.039941 -7.14386,3.039941 -4.51648,0 -7.03529,-3.018228 -2.51881,-3.018227 -2.51881,-7.686709 0,-4.863906 2.62738,-7.903848 2.64909,-3.039941 6.94844,-3.039941 z m 0.0651,5.298184 q -1.28112,0 -1.93254,1.389687 -0.65141,1.367974 -0.65141,4.125635 0,2.714234 0.6297,4.082207 0.65141,1.367974 1.93253,1.367974 1.30284,0 1.93254,-1.34626 0.65141,-1.367974 0.65141,-4.082207 0,-2.779375 -0.65141,-4.147349 -0.6297,-1.389687 -1.91082,-1.389687 z"
           style="fill:#ffffff"
           id="path3447"
           inkscape:connector-curvature="0" />
        <path
           d="m 201.28437,13.709154 6.90501,0 0,30.290846 -6.90501,0 0,-30.290846 z"
           style="fill:#ffffff"
           id="path3449"
           inkscape:connector-curvature="0" />
        <path
           d="m 223.4108,13.709154 6.92673,0 0,30.290846 -6.1016,0 -0.6297,-2.410239 q -0.97713,1.433115 -2.12796,2.171386 -1.15084,0.716558 -2.47538,0.716558 -3.14851,0 -5.12448,-3.213652 -1.97596,-3.235367 -1.97596,-7.469571 0,-4.407915 2.10625,-7.686709 2.12796,-3.278794 5.40675,-3.278794 0.99884,0 1.99768,0.434277 0.99883,0.412564 1.99767,1.281118 l 0,-10.83522 z m 0,16.024835 q -0.45599,-0.607988 -0.93369,-0.911983 -0.47771,-0.303994 -0.99884,-0.303994 -1.19426,0 -1.91082,1.367974 -0.71656,1.367974 -0.71656,3.626216 0,2.171387 0.67313,3.561074 0.69484,1.367974 1.82397,1.367974 0.97712,0 1.51997,-0.998838 0.54284,-1.020552 0.54284,-2.431953 l 0,-5.27647 z"
           style="fill:#ffffff"
           id="path3451"
           inkscape:connector-curvature="0" />
        <path
           d="m 233.79003,36.378432 q 3.32222,2.735948 5.75418,2.735948 0.93369,0 1.60682,-0.477705 0.67313,-0.499419 0.67313,-1.302832 0,-0.607989 -0.54284,-1.020552 -0.52114,-0.434278 -1.97597,-0.998838 -3.47421,-1.34626 -4.49477,-2.931372 -1.02055,-1.585113 -1.02055,-3.148511 0,-2.887945 2.36681,-4.646768 2.38853,-1.758823 5.79761,-1.758823 2.95308,0 5.84103,1.34626 l 0,6.145024 q -2.41024,-2.084531 -4.62506,-2.084531 -0.99883,0 -1.49825,0.325708 -0.49942,0.325708 -0.49942,0.998838 0,0.911982 2.14967,1.606826 5.84103,1.932534 5.84103,6.188452 0,2.996514 -2.41024,5.059332 -2.38852,2.062817 -6.16674,2.062817 -3.17022,0 -6.79644,-1.802251 l 0,-6.297022 z"
           style="fill:#ffffff"
           id="path3453"
           inkscape:connector-curvature="0" />
        <path
           d="m 253.65822,24.500947 q 3.53936,-1.671968 6.70958,-1.671968 2.3451,0 4.08221,0.825127 1.75882,0.825127 2.95308,2.670806 1.19427,1.845678 1.19427,4.711909 l 0,6.948438 q 0,3.018227 1.23769,6.014741 l -6.90501,0 q -0.39085,-0.868555 -0.6297,-1.975962 -1.02056,1.215977 -2.14968,1.845679 -1.1074,0.607988 -2.34509,0.607988 -2.41024,0 -4.32106,-1.91082 -1.88911,-1.932535 -1.88911,-4.690196 0,-6.210166 10.70494,-7.57814 -0.23886,-1.129121 -1.17255,-1.693681 -0.9337,-0.564561 -2.56224,-0.564561 -2.38852,0 -4.90733,1.954248 l 0,-5.493608 z m 8.64212,9.228394 q -4.34278,0.390849 -4.34278,3.235366 0,1.063979 0.65142,1.802251 0.65141,0.738271 1.54168,0.738271 1.04227,0 1.58512,-0.890268 0.56456,-0.890269 0.56456,-2.236529 l 0,-2.649091 z"
           style="fill:#ffffff"
           id="path3455"
           inkscape:connector-curvature="0" />
        <path
           d="m 284.90447,43.196587 q -2.23652,1.281118 -4.3862,1.281118 -3.77821,0 -6.38387,-3.105083 -2.58395,-3.126797 -2.58395,-7.686709 0,-4.538199 2.64909,-7.686709 2.6708,-3.170225 6.66616,-3.170225 1.75882,0 4.03877,0.868555 l 0,6.23188 q -1.4114,-1.020552 -2.5188,-1.020552 -1.58512,0 -2.67081,1.302832 -1.08569,1.302832 -1.08569,3.300508 0,1.997676 1.08569,3.365649 1.10741,1.34626 2.58395,1.34626 1.28112,0 2.60566,-1.150835 l 0,6.123311 z"
           style="fill:#ffffff"
           id="path3457"
           inkscape:connector-curvature="0" />
        <path
           d="m 288.92154,13.709154 6.86158,0 0,15.872838 3.30051,-6.275308 6.42731,0 -3.97364,5.775889 L 306.35778,44 l -7.27415,0 -2.3451,-7.86042 -0.95541,1.367974 0,6.492446 -6.86158,0 0,-30.290846 z"
           style="fill:#ffffff"
           id="path3459"
           inkscape:connector-curvature="0" />
      </g>
      <g
         style="font-weight:bold;font-size:10.64000034px;font-family:'Open Sans Condensed';fill:#ffd621"
         id="JEWELERY-DESIGN-&amp;-TU">
        <path
           d="m 181.07273,58.192422 q -0.5507,0 -0.87281,-0.129883 l 0,-1.231289 q 0.3377,0.103906 0.63903,0.103906 0.43121,0 0.62863,-0.275351 0.20262,-0.275352 0.20262,-0.82086 l 0,-7.434492 1.41312,0 0,7.361758 q 0,0.748125 -0.25457,1.298828 -0.24937,0.550703 -0.71176,0.836445 -0.45719,0.290938 -1.04426,0.290938 z"
           id="path8133"
           inkscape:connector-curvature="0" />
        <path
           d="m 187.83703,56 -3.42371,0 0,-7.595547 3.42371,0 0,1.220898 -2.01058,0 0,1.807969 1.86511,0 0,1.226094 -1.86511,0 0,2.104102 2.01058,0 0,1.236484 z"
           id="path8135"
           inkscape:connector-curvature="0" />
        <path
           d="m 195.24035,56 -1.7664,0 -0.74293,-3.97961 q -0.17145,-0.815664 -0.24418,-1.927461 l -0.0416,0.384454 -0.213,1.563789 L 191.51012,56 l -1.76641,0 -1.37676,-7.595547 1.38715,0 0.68059,4.286133 q 0.0987,0.644219 0.26496,2.020976 0.12988,-1.392343 0.24418,-1.989804 l 0.81047,-4.317305 1.46508,0 0.81046,4.317305 q 0.16106,0.961133 0.25457,2.000195 0.18184,-1.537812 0.26497,-2.031367 l 0.6598,-4.286133 1.39754,0 L 195.24035,56 Z"
           id="path8137"
           inkscape:connector-curvature="0" />
        <path
           d="m 200.80453,56 -3.42371,0 0,-7.595547 3.42371,0 0,1.220898 -2.01058,0 0,1.807969 1.86511,0 0,1.226094 -1.86511,0 0,2.104102 2.01058,0 0,1.236484 z"
           id="path8139"
           inkscape:connector-curvature="0" />
        <path
           d="m 201.91113,56 0,-7.595547 1.41313,0 0,6.359063 1.95863,0 0,1.236484 -3.37176,0 z"
           id="path8141"
           inkscape:connector-curvature="0" />
        <path
           d="m 209.61578,56 -3.42371,0 0,-7.595547 3.42371,0 0,1.220898 -2.01058,0 0,1.807969 1.86511,0 0,1.226094 -1.86511,0 0,2.104102 2.01058,0 0,1.236484 z"
           id="path8143"
           inkscape:connector-curvature="0" />
        <path
           d="m 212.13551,53.043867 0,2.956133 -1.41313,0 0,-7.595547 1.84954,0 q 1.17414,0 1.73003,0.555898 0.5611,0.555899 0.5611,1.698868 0,1.439101 -0.97153,2.010586 L 215.35141,56 l -1.51184,0 -1.20012,-2.956133 -0.50394,0 z m 0,-1.215703 0.36367,0 q 0.49875,0 0.71695,-0.280547 0.21821,-0.285742 0.21821,-0.846836 0,-0.581875 -0.23379,-0.826055 -0.2286,-0.249375 -0.71176,-0.249375 l -0.35328,0 0,2.202813 z"
           id="path8145"
           inkscape:connector-curvature="0" />
        <path
           d="m 217.87113,51.402148 1.01309,-2.997695 1.48066,0 -1.80277,4.551094 0,3.044453 -1.39234,0 0,-2.987305 -1.79758,-4.608242 1.49105,0 1.00789,2.997695 z"
           id="path8147"
           inkscape:connector-curvature="0" />
        <path
           d="m 228.50075,52.129492 q 0,1.880703 -0.76891,2.878203 Q 226.96813,56 225.52903,56 l -1.85993,0 0,-7.595547 2.03137,0 q 1.32481,0 2.06254,0.981914 0.73774,0.976719 0.73774,2.743125 z m -1.4495,0.04156 q 0,-2.545704 -1.40273,-2.545704 l -0.56629,0 0,5.138165 0.45719,0 q 0.7741,0 1.14297,-0.644219 0.36886,-0.649414 0.36886,-1.948242 z"
           id="path8149"
           inkscape:connector-curvature="0" />
        <path
           d="m 233.03625,56 -3.42371,0 0,-7.595547 3.42371,0 0,1.220898 -2.01058,0 0,1.807969 1.86511,0 0,1.226094 -1.86511,0 0,2.104102 2.01058,0 0,1.236484 z"
           id="path8151"
           inkscape:connector-curvature="0" />
        <path
           d="m 237.60293,53.906289 q 0,1.065039 -0.54031,1.631328 -0.53512,0.566289 -1.54821,0.566289 -0.9923,0 -1.68847,-0.389648 l 0,-1.397539 q 0.85203,0.555898 1.56379,0.555898 0.40523,0 0.60785,-0.223398 0.20781,-0.223399 0.20781,-0.607852 0,-0.379258 -0.24418,-0.690976 -0.24418,-0.316915 -0.80527,-0.701368 -0.48836,-0.337695 -0.74293,-0.644218 -0.24938,-0.311719 -0.38965,-0.696172 -0.13508,-0.384453 -0.13508,-0.893594 0,-0.976719 0.54031,-1.548203 0.54551,-0.571485 1.45989,-0.571485 0.87281,0 1.67808,0.48836 l -0.46758,1.132578 q -0.24937,-0.145469 -0.52472,-0.259766 -0.27016,-0.114297 -0.58188,-0.114297 -0.34289,0 -0.52992,0.228594 -0.18183,0.223399 -0.18183,0.613047 0,0.384453 0.2182,0.670195 0.2234,0.285743 0.7741,0.649414 0.74293,0.49875 1.03387,1.018282 0.29613,0.519531 0.29613,1.184531 z"
           id="path8153"
           inkscape:connector-curvature="0" />
        <path
           d="m 238.80305,56 0,-7.595547 1.33,0 0,7.595547 -1.33,0 z"
           id="path8155"
           inkscape:connector-curvature="0" />
        <path
           d="m 244.02434,51.786601 2.3223,0 0,3.896485 q -0.98711,0.42082 -2.0989,0.42082 -1.32481,0 -2.04176,-1.00789 -0.71176,-1.007891 -0.71176,-2.90418 0,-1.82875 0.81567,-2.862617 0.82086,-1.033868 2.29113,-1.033868 0.90918,0 1.73523,0.467578 l -0.44679,1.15336 q -0.64422,-0.374063 -1.20532,-0.374063 -0.80527,0 -1.27804,0.722149 -0.46758,0.716953 -0.46758,1.958633 0,1.278047 0.33769,1.958633 0.34289,0.680586 0.99231,0.680586 0.34289,0 0.69617,-0.08832 l 0,-1.74043 -0.94035,0 0,-1.246875 z"
           id="path8157"
           inkscape:connector-curvature="0" />
        <path
           d="m 252.84598,56 -1.72485,0 -2.34828,-5.501836 -0.0675,0 q 0.12989,0.628633 0.12989,1.350781 l 0,4.151055 -1.30922,0 0,-7.595547 1.73523,0 2.3275,5.444688 0.0572,0 q -0.0987,-0.545508 -0.0987,-1.298829 l 0,-4.145859 1.29883,0 0,7.595547 z"
           id="path8159"
           inkscape:connector-curvature="0" />
        <path
           d="m 260.67532,56 -0.36887,-0.529922 q -0.70656,0.633828 -1.75602,0.633828 -0.9975,0 -1.5482,-0.566289 -0.5507,-0.566289 -0.5507,-1.568984 0,-1.288438 1.26765,-2.16125 -0.40004,-0.618243 -0.52992,-0.976719 -0.12988,-0.358477 -0.12988,-0.758516 0,-0.810469 0.50394,-1.293633 0.50395,-0.483164 1.32481,-0.483164 0.78969,0 1.25727,0.451993 0.46757,0.446796 0.46757,1.241679 0,0.545508 -0.28574,1.039063 -0.28574,0.488359 -0.95594,0.992304 l 1.05985,1.491055 q 0.17664,-0.322109 0.27535,-0.716953 0.0987,-0.394844 0.17144,-0.784492 l 1.20532,0 q -0.19743,1.454687 -0.86243,2.587266 L 262.22872,56 l -1.5534,0 z m -2.82625,-2.16125 q 0,0.483164 0.22859,0.758516 0.22859,0.275351 0.62344,0.275351 0.51953,0 0.91437,-0.384453 l -1.24687,-1.797578 q -0.51953,0.467578 -0.51953,1.148164 z m 1.48586,-3.725039 q 0,-0.337696 -0.14028,-0.48836 -0.13508,-0.155859 -0.3273,-0.155859 -0.23899,0 -0.37926,0.171445 -0.14027,0.16625 -0.14027,0.48836 0,0.285742 0.11949,0.529922 0.12469,0.238984 0.30652,0.488359 0.31692,-0.24418 0.43641,-0.472773 0.12469,-0.228594 0.12469,-0.561094 z"
           id="path8161"
           inkscape:connector-curvature="0" />
        <path
           d="m 267.97993,56 -1.40793,0 0,-6.353867 -1.45469,0 0,-1.24168 4.3173,0 0,1.24168 -1.45468,0 0,6.353867 z"
           id="path8163"
           inkscape:connector-curvature="0" />
        <path
           d="m 274.93125,48.404453 0,4.914766 q 0,1.355976 -0.61305,2.072929 -0.61304,0.711758 -1.7716,0.711758 -1.13258,0 -1.72484,-0.706562 -0.59227,-0.711758 -0.59227,-2.098907 l 0,-4.893984 1.40274,0 0,4.997891 q 0,1.449492 0.96113,1.449492 0.4468,0 0.69098,-0.368867 0.24418,-0.368867 0.24418,-1.049453 l 0,-5.029063 1.40273,0 z"
           id="path8165"
           inkscape:connector-curvature="0" />
        <path
           d="m 278.57836,56 -1.40793,0 0,-6.353867 -1.45469,0 0,-1.24168 4.31731,0 0,1.24168 -1.45469,0 0,6.353867 z"
           id="path8167"
           inkscape:connector-curvature="0" />
        <path
           d="m 281.11368,56 0,-7.595547 1.33,0 0,7.595547 -1.33,0 z"
           id="path8169"
           inkscape:connector-curvature="0" />
        <path
           d="m 286.37133,56 -1.40793,0 0,-6.353867 -1.45469,0 0,-1.24168 4.31731,0 0,1.24168 -1.45469,0 0,6.353867 z"
           id="path8171"
           inkscape:connector-curvature="0" />
        <path
           d="m 288.90665,56 0,-7.595547 1.33,0 0,7.595547 -1.33,0 z"
           id="path8173"
           inkscape:connector-curvature="0" />
        <path
           d="m 297.05809,52.191836 q 0,1.885898 -0.70657,2.898984 -0.70656,1.013086 -2.02097,1.013086 -1.31961,0 -2.02617,-1.00789 -0.70657,-1.013086 -0.70657,-2.914571 0,-1.885898 0.70657,-2.888594 0.70656,-1.00789 2.03656,-1.00789 1.31441,0 2.01578,1.013086 0.70137,1.00789 0.70137,2.893789 z m -4.01598,0 q 0,1.298828 0.32731,1.979414 0.3273,0.680586 0.96113,0.680586 1.27805,0 1.27805,-2.66 0,-2.66 -1.26766,-2.66 -0.64422,0 -0.97152,0.680586 -0.32731,0.67539 -0.32731,1.979414 z"
           id="path8175"
           inkscape:connector-curvature="0" />
        <path
           d="m 303.48989,56 -1.72484,0 -2.34828,-5.501836 -0.0675,0 q 0.12988,0.628633 0.12988,1.350781 l 0,4.151055 -1.30922,0 0,-7.595547 1.73523,0 2.3275,5.444688 0.0571,0 q -0.0987,-0.545508 -0.0987,-1.298829 l 0,-4.145859 1.29883,0 0,7.595547 z"
           id="path8177"
           inkscape:connector-curvature="0" />
      </g>
      <g
         id="Rectangle-1-+-Rectangle-1-Copy-+-Rectangle-1-Copy-2"
         sketch:type="MSLayerGroup"
         transform="translate(24,8)">
        <g
           id="Rectangle-1"
           style="filter:url(#filter-2)">
          <use
             sketch:type="MSShapeGroup"
             xlink:href="#path-3"
             id="use88"
             style="fill:#ffd621"
             x="0"
             y="0"
             width="100%"
             height="100%" />
          <use
             xlink:href="#path-3"
             id="use90"
             style="fill:url(#linearGradient-1)"
             x="0"
             y="0"
             width="100%"
             height="100%" />
        </g>
        <g
           id="Rectangle-1-Copy"
           style="filter:url(#filter-5)">
          <use
             sketch:type="MSShapeGroup"
             xlink:href="#path-6"
             id="use93"
             style="fill:#ffe9c9"
             x="0"
             y="0"
             width="100%"
             height="100%" />
          <use
             xlink:href="#path-6"
             id="use95"
             style="fill:url(#linearGradient-4)"
             x="0"
             y="0"
             width="100%"
             height="100%" />
        </g>
        <g
           id="Rectangle-1-Copy-2"
           style="filter:url(#filter-8)">
          <use
             sketch:type="MSShapeGroup"
             xlink:href="#path-9"
             id="use98"
             style="fill:#ffffff"
             x="0"
             y="0"
             width="100%"
             height="100%" />
          <use
             xlink:href="#path-9"
             id="use100"
             style="fill:url(#linearGradient-7)"
             x="0"
             y="0"
             width="100%"
             height="100%" />
        </g>
      </g>
    </g>
  </g>
</svg>
