<?xml version="1.0" encoding="UTF-8" standalone="no"?>
<svg
   xmlns:sketch="http://www.bohemiancoding.com/sketch/ns"
   xmlns:dc="http://purl.org/dc/elements/1.1/"
   xmlns:cc="http://creativecommons.org/ns#"
   xmlns:rdf="http://www.w3.org/1999/02/22-rdf-syntax-ns#"
   xmlns:svg="http://www.w3.org/2000/svg"
   xmlns="http://www.w3.org/2000/svg"
   xmlns:xlink="http://www.w3.org/1999/xlink"
   xmlns:sodipodi="http://sodipodi.sourceforge.net/DTD/sodipodi-0.dtd"
   xmlns:inkscape="http://www.inkscape.org/namespaces/inkscape"
   width="315px"
   height="67px"
   viewBox="0 0 315 67"
   version="1.1"
   id="svg2"
   inkscape:version="0.91 r13725"
   sodipodi:docname="alice-goldsack-logo-wide.svg">
  <metadata
     id="metadata104">
    <rdf:RDF>
      <cc:Work
         rdf:about="">
        <dc:format>image/svg+xml</dc:format>
        <dc:type
           rdf:resource="http://purl.org/dc/dcmitype/StillImage" />
        <dc:title>Artboard 1</dc:title>
      </cc:Work>
    </rdf:RDF>
  </metadata>
  <sodipodi:namedview
     pagecolor="#ffffff"
     bordercolor="#666666"
     borderopacity="1"
     objecttolerance="10"
     gridtolerance="10"
     guidetolerance="10"
     inkscape:pageopacity="0"
     inkscape:pageshadow="2"
     inkscape:window-width="1138"
     inkscape:window-height="729"
     id="namedview102"
     showgrid="false"
     inkscape:zoom="2.7835315"
     inkscape:cx="128.16885"
     inkscape:cy="10.805929"
     inkscape:window-x="71"
     inkscape:window-y="11"
     inkscape:window-maximized="0"
     inkscape:current-layer="Page-1" />
  <!-- Generator: Sketch 3.3.2 (12043) - http://www.bohemiancoding.com/sketch -->
  <title
     id="title4">Artboard 1</title>
  <desc
     id="desc6">Created with Sketch.</desc>
  <defs
     id="defs8">
    <linearGradient
       x1="28.5"
       y1="0"
       x2="49.714843"
       y2="45.162107"
       id="linearGradient-1"
       gradientUnits="userSpaceOnUse">
      <stop
         stop-color="#FFFFFF"
         stop-opacity="0.5"
         offset="0%"
         id="stop11" />
      <stop
         stop-color="#000000"
         stop-opacity="0.5"
         offset="100%"
         id="stop13" />
    </linearGradient>
    <filter
       x="-50%"
       y="-50%"
       width="200%"
       height="200%"
       filterUnits="objectBoundingBox"
       id="filter-2">
      <feOffset
         dx="0"
         dy="2"
         in="SourceAlpha"
         result="shadowOffsetOuter1"
         id="feOffset16" />
      <feGaussianBlur
         stdDeviation="2"
         in="shadowOffsetOuter1"
         result="shadowBlurOuter1"
         id="feGaussianBlur18" />
      <feColorMatrix
         values="0 0 0 0 0   0 0 0 0 0   0 0 0 0 0  0 0 0 0.154769588 0"
         in="shadowBlurOuter1"
         type="matrix"
         result="shadowMatrixOuter1"
         id="feColorMatrix20" />
      <feMerge
         id="feMerge22">
        <feMergeNode
           in="shadowMatrixOuter1"
           id="feMergeNode24" />
        <feMergeNode
           in="SourceGraphic"
           id="feMergeNode26" />
      </feMerge>
    </filter>
    <rect
       id="path-3"
       x="20"
       y="0"
       width="17"
       height="17" />
    <linearGradient
       x1="28.5"
       y1="20"
       x2="59.321287"
       y2="50.319335"
       id="linearGradient-4"
       gradientUnits="userSpaceOnUse">
      <stop
         stop-color="#FFFFFF"
         stop-opacity="0.5"
         offset="0%"
         id="stop30" />
      <stop
         stop-color="#000000"
         stop-opacity="0.5"
         offset="100%"
         id="stop32" />
    </linearGradient>
    <filter
       x="-50%"
       y="-50%"
       width="200%"
       height="200%"
       filterUnits="objectBoundingBox"
       id="filter-5">
      <feOffset
         dx="0"
         dy="2"
         in="SourceAlpha"
         result="shadowOffsetOuter1"
         id="feOffset35" />
      <feGaussianBlur
         stdDeviation="2"
         in="shadowOffsetOuter1"
         result="shadowBlurOuter1"
         id="feGaussianBlur37" />
      <feColorMatrix
         values="0 0 0 0 0   0 0 0 0 0   0 0 0 0 0  0 0 0 0.118866055 0"
         in="shadowBlurOuter1"
         type="matrix"
         result="shadowMatrixOuter1"
         id="feColorMatrix39" />
      <feMerge
         id="feMerge41">
        <feMergeNode
           in="shadowMatrixOuter1"
           id="feMergeNode43" />
        <feMergeNode
           in="SourceGraphic"
           id="feMergeNode45" />
      </feMerge>
    </filter>
    <rect
       id="path-6"
       x="20"
       y="20"
       width="17"
       height="17" />
    <linearGradient
       x1="8.5"
       y1="20"
       x2="31.071289"
       y2="65.022461"
       id="linearGradient-7"
       gradientUnits="userSpaceOnUse">
      <stop
         stop-color="#FFFFFF"
         stop-opacity="0.5"
         offset="0%"
         id="stop49" />
      <stop
         stop-color="#000000"
         stop-opacity="0.5"
         offset="100%"
         id="stop51" />
    </linearGradient>
    <filter
       x="-50%"
       y="-50%"
       width="200%"
       height="200%"
       filterUnits="objectBoundingBox"
       id="filter-8">
      <feOffset
         dx="0"
         dy="2"
         in="SourceAlpha"
         result="shadowOffsetOuter1"
         id="feOffset54" />
      <feGaussianBlur
         stdDeviation="2"
         in="shadowOffsetOuter1"
         result="shadowBlurOuter1"
         id="feGaussianBlur56" />
      <feColorMatrix
         values="0 0 0 0 0   0 0 0 0 0   0 0 0 0 0  0 0 0 0.0991508152 0"
         in="shadowBlurOuter1"
         type="matrix"
         result="shadowMatrixOuter1"
         id="feColorMatrix58" />
      <feMerge
         id="feMerge60">
        <feMergeNode
           in="shadowMatrixOuter1"
           id="feMergeNode62" />
        <feMergeNode
           in="SourceGraphic"
           id="feMergeNode64" />
      </feMerge>
    </filter>
    <rect
       id="path-9"
       x="0"
       y="20"
       width="17"
       height="17" />
  </defs>
  <g
     id="Page-1"
     stroke="none"
     stroke-width="1"
     fill="none"
     fill-rule="evenodd"
     sketch:type="MSPage">
    <rect
       style="fill:#0000ff;fill-rule:evenodd;stroke:#000000;stroke-width:4.7047348px;stroke-linecap:butt;stroke-linejoin:miter;stroke-opacity:1"
       id="rect8183"
       width="480.57217"
       height="88.264763"
       x="-173.82375"
       y="-14.494994" />
    <text
       style="font-weight:bold;font-size:44.83197403px;font-family:'Abadi MT Condensed Extra Bold'"
       font-weight="bold"
       font-style="condensed"
       font-size="44.4700012"
       sketch:type="MSTextLayer"
       id="Alicegoldsack"
       transform="scale(1.0095313,0.99055868)"
       x="-8.8685093"
       y="-0.73859924">
      <tspan
         style="fill:#fffad2"
         id="tspan70"
         y="43.619549"
         x="63.717548">Alice</tspan>
      <tspan
         style="fill:#ffe200"
         id="tspan72"
         y="43.619549"
         x="147.7775">g</tspan>
      <tspan
         style="fill:#ffffff"
         id="tspan74"
         y="43.619549"
         x="169.73378">oldsack</tspan>
    </text>
    <g
       id="JEWELERY-DESIGN-&amp;-TU"
       style="font-weight:bold;font-size:10.64000034px;font-family:'Open Sans Condensed';fill:#ffd621"
       transform="matrix(1.0177486,0,0,0.99862155,-7.5160145,5.0164679)">
      <path
         inkscape:connector-curvature="0"
         id="path8133"
         d="m 181.07273,58.192422 q -0.5507,0 -0.87281,-0.129883 l 0,-1.231289 q 0.3377,0.103906 0.63903,0.103906 0.43121,0 0.62863,-0.275351 0.20262,-0.275352 0.20262,-0.82086 l 0,-7.434492 1.41312,0 0,7.361758 q 0,0.748125 -0.25457,1.298828 -0.24937,0.550703 -0.71176,0.836445 -0.45719,0.290938 -1.04426,0.290938 z" />
      <path
         inkscape:connector-curvature="0"
         id="path8135"
         d="m 187.83703,56 -3.42371,0 0,-7.595547 3.42371,0 0,1.220898 -2.01058,0 0,1.807969 1.86511,0 0,1.226094 -1.86511,0 0,2.104102 2.01058,0 0,1.236484 z" />
      <path
         inkscape:connector-curvature="0"
         id="path8137"
         d="m 195.24035,56 -1.7664,0 -0.74293,-3.97961 q -0.17145,-0.815664 -0.24418,-1.927461 l -0.0416,0.384454 -0.213,1.563789 L 191.51012,56 l -1.76641,0 -1.37676,-7.595547 1.38715,0 0.68059,4.286133 q 0.0987,0.644219 0.26496,2.020976 0.12988,-1.392343 0.24418,-1.989804 l 0.81047,-4.317305 1.46508,0 0.81046,4.317305 q 0.16106,0.961133 0.25457,2.000195 0.18184,-1.537812 0.26497,-2.031367 l 0.6598,-4.286133 1.39754,0 L 195.24035,56 Z" />
      <path
         inkscape:connector-curvature="0"
         id="path8139"
         d="m 200.80453,56 -3.42371,0 0,-7.595547 3.42371,0 0,1.220898 -2.01058,0 0,1.807969 1.86511,0 0,1.226094 -1.86511,0 0,2.104102 2.01058,0 0,1.236484 z" />
      <path
         inkscape:connector-curvature="0"
         id="path8141"
         d="m 201.91113,56 0,-7.595547 1.41313,0 0,6.359063 1.95863,0 0,1.236484 -3.37176,0 z" />
      <path
         inkscape:connector-curvature="0"
         id="path8143"
         d="m 209.61578,56 -3.42371,0 0,-7.595547 3.42371,0 0,1.220898 -2.01058,0 0,1.807969 1.86511,0 0,1.226094 -1.86511,0 0,2.104102 2.01058,0 0,1.236484 z" />
      <path
         inkscape:connector-curvature="0"
         id="path8145"
         d="m 212.13551,53.043867 0,2.956133 -1.41313,0 0,-7.595547 1.84954,0 q 1.17414,0 1.73003,0.555898 0.5611,0.555899 0.5611,1.698868 0,1.439101 -0.97153,2.010586 L 215.35141,56 l -1.51184,0 -1.20012,-2.956133 -0.50394,0 z m 0,-1.215703 0.36367,0 q 0.49875,0 0.71695,-0.280547 0.21821,-0.285742 0.21821,-0.846836 0,-0.581875 -0.23379,-0.826055 -0.2286,-0.249375 -0.71176,-0.249375 l -0.35328,0 0,2.202813 z" />
      <path
         inkscape:connector-curvature="0"
         id="path8147"
         d="m 217.87113,51.402148 1.01309,-2.997695 1.48066,0 -1.80277,4.551094 0,3.044453 -1.39234,0 0,-2.987305 -1.79758,-4.608242 1.49105,0 1.00789,2.997695 z" />
      <path
         inkscape:connector-curvature="0"
         id="path8149"
         d="m 228.50075,52.129492 q 0,1.880703 -0.76891,2.878203 Q 226.96813,56 225.52903,56 l -1.85993,0 0,-7.595547 2.03137,0 q 1.32481,0 2.06254,0.981914 0.73774,0.976719 0.73774,2.743125 z m -1.4495,0.04156 q 0,-2.545704 -1.40273,-2.545704 l -0.56629,0 0,5.138165 0.45719,0 q 0.7741,0 1.14297,-0.644219 0.36886,-0.649414 0.36886,-1.948242 z" />
      <path
         inkscape:connector-curvature="0"
         id="path8151"
         d="m 233.03625,56 -3.42371,0 0,-7.595547 3.42371,0 0,1.220898 -2.01058,0 0,1.807969 1.86511,0 0,1.226094 -1.86511,0 0,2.104102 2.01058,0 0,1.236484 z" />
      <path
         inkscape:connector-curvature="0"
         id="path8153"
         d="m 237.60293,53.906289 q 0,1.065039 -0.54031,1.631328 -0.53512,0.566289 -1.54821,0.566289 -0.9923,0 -1.68847,-0.389648 l 0,-1.397539 q 0.85203,0.555898 1.56379,0.555898 0.40523,0 0.60785,-0.223398 0.20781,-0.223399 0.20781,-0.607852 0,-0.379258 -0.24418,-0.690976 -0.24418,-0.316915 -0.80527,-0.701368 -0.48836,-0.337695 -0.74293,-0.644218 -0.24938,-0.311719 -0.38965,-0.696172 -0.13508,-0.384453 -0.13508,-0.893594 0,-0.976719 0.54031,-1.548203 0.54551,-0.571485 1.45989,-0.571485 0.87281,0 1.67808,0.48836 l -0.46758,1.132578 q -0.24937,-0.145469 -0.52472,-0.259766 -0.27016,-0.114297 -0.58188,-0.114297 -0.34289,0 -0.52992,0.228594 -0.18183,0.223399 -0.18183,0.613047 0,0.384453 0.2182,0.670195 0.2234,0.285743 0.7741,0.649414 0.74293,0.49875 1.03387,1.018282 0.29613,0.519531 0.29613,1.184531 z" />
      <path
         inkscape:connector-curvature="0"
         id="path8155"
         d="m 238.80305,56 0,-7.595547 1.33,0 0,7.595547 -1.33,0 z" />
      <path
         inkscape:connector-curvature="0"
         id="path8157"
         d="m 244.02434,51.786601 2.3223,0 0,3.896485 q -0.98711,0.42082 -2.0989,0.42082 -1.32481,0 -2.04176,-1.00789 -0.71176,-1.007891 -0.71176,-2.90418 0,-1.82875 0.81567,-2.862617 0.82086,-1.033868 2.29113,-1.033868 0.90918,0 1.73523,0.467578 l -0.44679,1.15336 q -0.64422,-0.374063 -1.20532,-0.374063 -0.80527,0 -1.27804,0.722149 -0.46758,0.716953 -0.46758,1.958633 0,1.278047 0.33769,1.958633 0.34289,0.680586 0.99231,0.680586 0.34289,0 0.69617,-0.08832 l 0,-1.74043 -0.94035,0 0,-1.246875 z" />
      <path
         inkscape:connector-curvature="0"
         id="path8159"
         d="m 252.84598,56 -1.72485,0 -2.34828,-5.501836 -0.0675,0 q 0.12989,0.628633 0.12989,1.350781 l 0,4.151055 -1.30922,0 0,-7.595547 1.73523,0 2.3275,5.444688 0.0572,0 q -0.0987,-0.545508 -0.0987,-1.298829 l 0,-4.145859 1.29883,0 0,7.595547 z" />
      <path
         inkscape:connector-curvature="0"
         id="path8161"
         d="m 260.67532,56 -0.36887,-0.529922 q -0.70656,0.633828 -1.75602,0.633828 -0.9975,0 -1.5482,-0.566289 -0.5507,-0.566289 -0.5507,-1.568984 0,-1.288438 1.26765,-2.16125 -0.40004,-0.618243 -0.52992,-0.976719 -0.12988,-0.358477 -0.12988,-0.758516 0,-0.810469 0.50394,-1.293633 0.50395,-0.483164 1.32481,-0.483164 0.78969,0 1.25727,0.451993 0.46757,0.446796 0.46757,1.241679 0,0.545508 -0.28574,1.039063 -0.28574,0.488359 -0.95594,0.992304 l 1.05985,1.491055 q 0.17664,-0.322109 0.27535,-0.716953 0.0987,-0.394844 0.17144,-0.784492 l 1.20532,0 q -0.19743,1.454687 -0.86243,2.587266 L 262.22872,56 l -1.5534,0 z m -2.82625,-2.16125 q 0,0.483164 0.22859,0.758516 0.22859,0.275351 0.62344,0.275351 0.51953,0 0.91437,-0.384453 l -1.24687,-1.797578 q -0.51953,0.467578 -0.51953,1.148164 z m 1.48586,-3.725039 q 0,-0.337696 -0.14028,-0.48836 -0.13508,-0.155859 -0.3273,-0.155859 -0.23899,0 -0.37926,0.171445 -0.14027,0.16625 -0.14027,0.48836 0,0.285742 0.11949,0.529922 0.12469,0.238984 0.30652,0.488359 0.31692,-0.24418 0.43641,-0.472773 0.12469,-0.228594 0.12469,-0.561094 z" />
      <path
         inkscape:connector-curvature="0"
         id="path8163"
         d="m 267.97993,56 -1.40793,0 0,-6.353867 -1.45469,0 0,-1.24168 4.3173,0 0,1.24168 -1.45468,0 0,6.353867 z" />
      <path
         inkscape:connector-curvature="0"
         id="path8165"
         d="m 274.93125,48.404453 0,4.914766 q 0,1.355976 -0.61305,2.072929 -0.61304,0.711758 -1.7716,0.711758 -1.13258,0 -1.72484,-0.706562 -0.59227,-0.711758 -0.59227,-2.098907 l 0,-4.893984 1.40274,0 0,4.997891 q 0,1.449492 0.96113,1.449492 0.4468,0 0.69098,-0.368867 0.24418,-0.368867 0.24418,-1.049453 l 0,-5.029063 1.40273,0 z" />
      <path
         inkscape:connector-curvature="0"
         id="path8167"
         d="m 278.57836,56 -1.40793,0 0,-6.353867 -1.45469,0 0,-1.24168 4.31731,0 0,1.24168 -1.45469,0 0,6.353867 z" />
      <path
         inkscape:connector-curvature="0"
         id="path8169"
         d="m 281.11368,56 0,-7.595547 1.33,0 0,7.595547 -1.33,0 z" />
      <path
         inkscape:connector-curvature="0"
         id="path8171"
         d="m 286.37133,56 -1.40793,0 0,-6.353867 -1.45469,0 0,-1.24168 4.31731,0 0,1.24168 -1.45469,0 0,6.353867 z" />
      <path
         inkscape:connector-curvature="0"
         id="path8173"
         d="m 288.90665,56 0,-7.595547 1.33,0 0,7.595547 -1.33,0 z" />
      <path
         inkscape:connector-curvature="0"
         id="path8175"
         d="m 297.05809,52.191836 q 0,1.885898 -0.70657,2.898984 -0.70656,1.013086 -2.02097,1.013086 -1.31961,0 -2.02617,-1.00789 -0.70657,-1.013086 -0.70657,-2.914571 0,-1.885898 0.70657,-2.888594 0.70656,-1.00789 2.03656,-1.00789 1.31441,0 2.01578,1.013086 0.70137,1.00789 0.70137,2.893789 z m -4.01598,0 q 0,1.298828 0.32731,1.979414 0.3273,0.680586 0.96113,0.680586 1.27805,0 1.27805,-2.66 0,-2.66 -1.26766,-2.66 -0.64422,0 -0.97152,0.680586 -0.32731,0.67539 -0.32731,1.979414 z" />
      <path
         inkscape:connector-curvature="0"
         id="path8177"
         d="m 303.48989,56 -1.72484,0 -2.34828,-5.501836 -0.0675,0 q 0.12988,0.628633 0.12988,1.350781 l 0,4.151055 -1.30922,0 0,-7.595547 1.73523,0 2.3275,5.444688 0.0571,0 q -0.0987,-0.545508 -0.0987,-1.298829 l 0,-4.145859 1.29883,0 0,7.595547 z" />
    </g>
    <g
       transform="matrix(1.0177486,0,0,0.99862155,16.909952,13.00544)"
       sketch:type="MSLayerGroup"
       id="Rectangle-1-+-Rectangle-1-Copy-+-Rectangle-1-Copy-2">
      <g
         style="filter:url(#filter-2)"
         id="Rectangle-1">
        <use
           height="100%"
           width="100%"
           y="0"
           x="0"
           style="fill:#ffd621"
           id="use88"
           xlink:href="#path-3"
           sketch:type="MSShapeGroup" />
        <use
           height="100%"
           width="100%"
           y="0"
           x="0"
           style="fill:url(#linearGradient-1)"
           id="use90"
           xlink:href="#path-3" />
      </g>
      <g
         style="filter:url(#filter-5)"
         id="Rectangle-1-Copy">
        <use
           height="100%"
           width="100%"
           y="0"
           x="0"
           style="fill:#ffe9c9"
           id="use93"
           xlink:href="#path-6"
           sketch:type="MSShapeGroup" />
        <use
           height="100%"
           width="100%"
           y="0"
           x="0"
           style="fill:url(#linearGradient-4)"
           id="use95"
           xlink:href="#path-6" />
      </g>
      <g
         style="filter:url(#filter-8)"
         id="Rectangle-1-Copy-2">
        <use
           height="100%"
           width="100%"
           y="0"
           x="0"
           style="fill:#ffffff"
           id="use98"
           xlink:href="#path-9"
           sketch:type="MSShapeGroup" />
        <use
           height="100%"
           width="100%"
           y="0"
           x="0"
           style="fill:url(#linearGradient-7)"
           id="use100"
           xlink:href="#path-9" />
      </g>
    </g>
  </g>
</svg>
