<?xml version="1.0" encoding="UTF-8" standalone="no"?>
<svg width="231px" height="233px" viewBox="0 0 231 233" version="1.1" xmlns="http://www.w3.org/2000/svg" xmlns:xlink="http://www.w3.org/1999/xlink" xmlns:sketch="http://www.bohemiancoding.com/sketch/ns">
    <!-- Generator: Sketch 3.3.2 (12043) - http://www.bohemiancoding.com/sketch -->
    <title>Artboard 1</title>
    <desc>Created with Sketch.</desc>
    <defs>
        <linearGradient x1="50%" y1="0%" x2="50%" y2="100%" id="linearGradient-1">
            <stop stop-color="#FFFFFF" stop-opacity="0.5" offset="0%"></stop>
            <stop stop-color="#000000" stop-opacity="0.5" offset="100%"></stop>
        </linearGradient>
        <radialGradient cx="50%" cy="0%" fx="50%" fy="0%" r="100%" id="radialGradient-2">
            <stop stop-color="#F9F9F9" stop-opacity="0.5" offset="0%"></stop>
            <stop stop-color="#000000" stop-opacity="0.5" offset="100%"></stop>
        </radialGradient>
        <rect id="path-3" x="121" y="3" width="107" height="107"></rect>
        <radialGradient cx="50%" cy="0%" fx="50%" fy="0%" r="100%" id="radialGradient-4">
            <stop stop-color="#FFFFE8" stop-opacity="0.5" offset="0%"></stop>
            <stop stop-color="#000000" stop-opacity="0.5" offset="100%"></stop>
        </radialGradient>
        <rect id="path-5" x="121" y="122" width="107" height="107"></rect>
        <radialGradient cx="50%" cy="0%" fx="50%" fy="0%" r="100%" id="radialGradient-6">
            <stop stop-color="#E8FFFB" stop-opacity="0.5" offset="0%"></stop>
            <stop stop-color="#000000" stop-opacity="0.5" offset="100%"></stop>
        </radialGradient>
        <rect id="path-7" x="2" y="122" width="107" height="107"></rect>
        <filter x="-50%" y="-50%" width="200%" height="200%" filterUnits="objectBoundingBox" id="filter-8">
            <feOffset dx="0" dy="1" in="SourceAlpha" result="shadowOffsetInner1"></feOffset>
            <feGaussianBlur stdDeviation="0.5" in="shadowOffsetInner1" result="shadowBlurInner1"></feGaussianBlur>
            <feComposite in="shadowBlurInner1" in2="SourceAlpha" operator="arithmetic" k2="-1" k3="1" result="shadowInnerInner1"></feComposite>
            <feColorMatrix values="0 0 0 0 0   0 0 0 0 0   0 0 0 0 0  0 0 0 0.0899569746 0" in="shadowInnerInner1" type="matrix" result="shadowMatrixInner1"></feColorMatrix>
            <feMerge>
                <feMergeNode in="SourceGraphic"></feMergeNode>
                <feMergeNode in="shadowMatrixInner1"></feMergeNode>
            </feMerge>
        </filter>
        <filter x="-50%" y="-50%" width="200%" height="200%" filterUnits="objectBoundingBox" id="filter-9">
            <feOffset dx="0" dy="1" in="SourceAlpha" result="shadowOffsetInner1"></feOffset>
            <feGaussianBlur stdDeviation="0" in="shadowOffsetInner1" result="shadowBlurInner1"></feGaussianBlur>
            <feComposite in="shadowBlurInner1" in2="SourceAlpha" operator="arithmetic" k2="-1" k3="1" result="shadowInnerInner1"></feComposite>
            <feColorMatrix values="0 0 0 0 0   0 0 0 0 0   0 0 0 0 0  0 0 0 0.14678442 0" in="shadowInnerInner1" type="matrix" result="shadowMatrixInner1"></feColorMatrix>
            <feMerge>
                <feMergeNode in="SourceGraphic"></feMergeNode>
                <feMergeNode in="shadowMatrixInner1"></feMergeNode>
            </feMerge>
        </filter>
        <filter x="-50%" y="-50%" width="200%" height="200%" filterUnits="objectBoundingBox" id="filter-10">
            <feOffset dx="0" dy="1" in="SourceAlpha" result="shadowOffsetInner1"></feOffset>
            <feGaussianBlur stdDeviation="0" in="shadowOffsetInner1" result="shadowBlurInner1"></feGaussianBlur>
            <feComposite in="shadowBlurInner1" in2="SourceAlpha" operator="arithmetic" k2="-1" k3="1" result="shadowInnerInner1"></feComposite>
            <feColorMatrix values="0 0 0 0 0   0 0 0 0 0   0 0 0 0 0  0 0 0 0.164914515 0" in="shadowInnerInner1" type="matrix" result="shadowMatrixInner1"></feColorMatrix>
            <feMerge>
                <feMergeNode in="SourceGraphic"></feMergeNode>
                <feMergeNode in="shadowMatrixInner1"></feMergeNode>
            </feMerge>
        </filter>
        <filter x="-50%" y="-50%" width="200%" height="200%" filterUnits="objectBoundingBox" id="filter-11">
            <feOffset dx="0" dy="1" in="SourceAlpha" result="shadowOffsetInner1"></feOffset>
            <feGaussianBlur stdDeviation="0" in="shadowOffsetInner1" result="shadowBlurInner1"></feGaussianBlur>
            <feComposite in="shadowBlurInner1" in2="SourceAlpha" operator="arithmetic" k2="-1" k3="1" result="shadowInnerInner1"></feComposite>
            <feColorMatrix values="0 0 0 0 0   0 0 0 0 0   0 0 0 0 0  0 0 0 0.14678442 0" in="shadowInnerInner1" type="matrix" result="shadowMatrixInner1"></feColorMatrix>
            <feMerge>
                <feMergeNode in="SourceGraphic"></feMergeNode>
                <feMergeNode in="shadowMatrixInner1"></feMergeNode>
            </feMerge>
        </filter>
        <filter x="-50%" y="-50%" width="200%" height="200%" filterUnits="objectBoundingBox" id="filter-12">
            <feOffset dx="0" dy="1" in="SourceAlpha" result="shadowOffsetInner1"></feOffset>
            <feGaussianBlur stdDeviation="0.5" in="shadowOffsetInner1" result="shadowBlurInner1"></feGaussianBlur>
            <feComposite in="shadowBlurInner1" in2="SourceAlpha" operator="arithmetic" k2="-1" k3="1" result="shadowInnerInner1"></feComposite>
            <feColorMatrix values="0 0 0 0 0   0 0 0 0 0   0 0 0 0 0  0 0 0 0.223703578 0" in="shadowInnerInner1" type="matrix" result="shadowMatrixInner1"></feColorMatrix>
            <feMerge>
                <feMergeNode in="SourceGraphic"></feMergeNode>
                <feMergeNode in="shadowMatrixInner1"></feMergeNode>
            </feMerge>
        </filter>
        <filter x="-50%" y="-50%" width="200%" height="200%" filterUnits="objectBoundingBox" id="filter-13">
            <feOffset dx="0" dy="1" in="SourceAlpha" result="shadowOffsetInner1"></feOffset>
            <feGaussianBlur stdDeviation="0" in="shadowOffsetInner1" result="shadowBlurInner1"></feGaussianBlur>
            <feComposite in="shadowBlurInner1" in2="SourceAlpha" operator="arithmetic" k2="-1" k3="1" result="shadowInnerInner1"></feComposite>
            <feColorMatrix values="0 0 0 0 0   0 0 0 0 0   0 0 0 0 0  0 0 0 0.164914515 0" in="shadowInnerInner1" type="matrix" result="shadowMatrixInner1"></feColorMatrix>
            <feMerge>
                <feMergeNode in="SourceGraphic"></feMergeNode>
                <feMergeNode in="shadowMatrixInner1"></feMergeNode>
            </feMerge>
        </filter>
        <filter x="-50%" y="-50%" width="200%" height="200%" filterUnits="objectBoundingBox" id="filter-14">
            <feOffset dx="0" dy="1" in="SourceAlpha" result="shadowOffsetInner1"></feOffset>
            <feGaussianBlur stdDeviation="0" in="shadowOffsetInner1" result="shadowBlurInner1"></feGaussianBlur>
            <feComposite in="shadowBlurInner1" in2="SourceAlpha" operator="arithmetic" k2="-1" k3="1" result="shadowInnerInner1"></feComposite>
            <feColorMatrix values="0 0 0 0 0   0 0 0 0 0   0 0 0 0 0  0 0 0 0.14678442 0" in="shadowInnerInner1" type="matrix" result="shadowMatrixInner1"></feColorMatrix>
            <feMerge>
                <feMergeNode in="SourceGraphic"></feMergeNode>
                <feMergeNode in="shadowMatrixInner1"></feMergeNode>
            </feMerge>
        </filter>
        <filter x="-50%" y="-50%" width="200%" height="200%" filterUnits="objectBoundingBox" id="filter-15">
            <feOffset dx="0" dy="1" in="SourceAlpha" result="shadowOffsetInner1"></feOffset>
            <feGaussianBlur stdDeviation="0.5" in="shadowOffsetInner1" result="shadowBlurInner1"></feGaussianBlur>
            <feComposite in="shadowBlurInner1" in2="SourceAlpha" operator="arithmetic" k2="-1" k3="1" result="shadowInnerInner1"></feComposite>
            <feColorMatrix values="0 0 0 0 0   0 0 0 0 0   0 0 0 0 0  0 0 0 0.223703578 0" in="shadowInnerInner1" type="matrix" result="shadowMatrixInner1"></feColorMatrix>
            <feMerge>
                <feMergeNode in="SourceGraphic"></feMergeNode>
                <feMergeNode in="shadowMatrixInner1"></feMergeNode>
            </feMerge>
        </filter>
        <filter x="-50%" y="-50%" width="200%" height="200%" filterUnits="objectBoundingBox" id="filter-16">
            <feOffset dx="0" dy="1" in="SourceAlpha" result="shadowOffsetInner1"></feOffset>
            <feGaussianBlur stdDeviation="0" in="shadowOffsetInner1" result="shadowBlurInner1"></feGaussianBlur>
            <feComposite in="shadowBlurInner1" in2="SourceAlpha" operator="arithmetic" k2="-1" k3="1" result="shadowInnerInner1"></feComposite>
            <feColorMatrix values="0 0 0 0 0   0 0 0 0 0   0 0 0 0 0  0 0 0 0.164914515 0" in="shadowInnerInner1" type="matrix" result="shadowMatrixInner1"></feColorMatrix>
            <feMerge>
                <feMergeNode in="SourceGraphic"></feMergeNode>
                <feMergeNode in="shadowMatrixInner1"></feMergeNode>
            </feMerge>
        </filter>
    </defs>
    <g id="Page-1" stroke="none" stroke-width="1" fill="none" fill-rule="evenodd" sketch:type="MSPage">
        <g id="Artboard-1" sketch:type="MSArtboardGroup">
            <g id="Rectangle-1-Copy-3">
                <use fill="#FFFFFF" sketch:type="MSShapeGroup" xlink:href="#path-3"></use>
                <use fill="url(#linearGradient-1)" xlink:href="#path-3"></use>
                <use fill-opacity="0.26000002" fill="url(#radialGradient-2)" xlink:href="#path-3"></use>
            </g>
            <g id="Rectangle-1-Copy">
                <use fill="#FFFFFF" sketch:type="MSShapeGroup" xlink:href="#path-5"></use>
                <use fill="url(#linearGradient-1)" xlink:href="#path-5"></use>
                <use fill="url(#radialGradient-4)" xlink:href="#path-5"></use>
                <use fill-opacity="0.4" fill="#FFE000" xlink:href="#path-5"></use>
            </g>
            <g id="Rectangle-1-Copy-2">
                <use fill="#FFFFFF" sketch:type="MSShapeGroup" xlink:href="#path-7"></use>
                <use fill="url(#linearGradient-1)" xlink:href="#path-7"></use>
                <use fill="url(#radialGradient-6)" xlink:href="#path-7"></use>
            </g>
            <path d="M151.852911,35 L160.596016,35 L170.530133,72.4798495 L160.947906,72.4798495 L159.621553,65.0376142 L152.421348,65.0376142 L151.01379,72.4798495 L142,72.4798495 L151.852911,35 Z M156.048519,45.236432 L153.639428,58.3207953 L158.403473,58.3207953 L156.048519,45.236432 Z M186.392237,69.3901128 C185.652363,70.4110744 184.831295,71.181262 183.929009,71.7006985 C183.026723,72.2201351 182.034224,72.4798495 180.951481,72.4798495 C178.533355,72.4798495 176.449106,71.2260559 174.698672,68.718431 C172.948238,66.210806 172.073034,63.1927456 172.073034,59.6641591 C172.073034,56.2251306 172.95726,53.1354248 174.725741,50.394949 C176.494221,47.6544731 178.758924,46.2842558 181.519918,46.2842558 C182.56657,46.2842558 183.541024,46.5036697 184.443309,46.942504 C185.345595,47.3813384 186.175686,48.0485357 186.933606,48.9441161 L189.261491,46.8753358 L195,46.8753358 L195,71.4588931 C195,75.2740653 193.935319,78.4846726 191.805924,81.0908114 C189.67653,83.6969502 186.653918,85 182.737998,85 C179.868729,85 176.882208,84.2029455 173.778345,82.6088125 L173.778345,74.1724879 C176.503248,76.2860575 178.876224,77.3428264 180.897344,77.3428264 C182.467321,77.3428264 183.775616,76.8189198 184.822268,75.7710908 C185.868919,74.7232618 186.392237,73.4023006 186.392237,71.8081677 L186.392237,69.3901128 Z M186.392237,54.6937131 C185.995231,54.2459229 185.598231,53.9145631 185.201226,53.6996239 C184.80422,53.4846846 184.40722,53.3772166 184.010215,53.3772166 C183.0177,53.3772166 182.232723,53.9100789 181.65526,54.9758195 C181.077798,56.04156 180.78907,57.4341666 180.78907,59.1536808 C180.78907,60.9090183 181.068775,62.3284918 181.628192,63.412144 C182.187609,64.4957962 182.91845,65.0376142 183.820735,65.0376142 C184.68693,65.0376142 185.332054,64.6256534 185.756129,63.8017195 C186.180203,62.9777856 186.392237,61.7508589 186.392237,60.1209027 L186.392237,54.6937131 Z" id="Ag" fill="#FFFFFF" filter="url(#filter-8)" sketch:type="MSShapeGroup"></path>
            <path d="M131.402741,16 L134.420137,16 L134.420137,23.0209738 L135.900369,23.0209738 L135.900369,25.270412 L134.420137,25.270412 L134.420137,29 L131.402741,29 L131.402741,25.270412 L127,25.270412 L127,22.8456929 L131.402741,16 Z M131.402741,19.7198502 L129.305746,23.0209738 L131.402741,23.0209738 L131.402741,19.7198502 Z M137.17185,16 L145,16 L145,18.4636704 L140.976805,29 L137.74117,29 L141.944649,18.4636704 L137.17185,18.4636704 L137.17185,16 Z" id="47" fill="#FFFFFF" filter="url(#filter-9)" sketch:type="MSShapeGroup"></path>
            <path d="M161.352768,99.5461741 C161.352768,100.014074 161.228259,100.434475 160.979237,100.807388 C160.730214,101.180301 160.365774,101.472294 159.885906,101.683377 C159.406038,101.89446 158.837112,102 158.179111,102 C157.390237,102 156.739516,101.855762 156.22693,101.567282 C155.863393,101.359718 155.568024,101.082675 155.340814,100.736148 C155.113603,100.38962 155,100.052772 155,99.7255937 C155,99.5356191 155.068162,99.3729118 155.204488,99.237467 C155.340814,99.1020222 155.514401,99.0343008 155.725252,99.0343008 C155.896114,99.0343008 156.040617,99.0870707 156.158767,99.1926121 C156.276916,99.2981536 156.377796,99.4547043 156.461409,99.6622691 C156.5632,99.9085325 156.673168,100.114335 156.791317,100.279683 C156.909466,100.445032 157.075782,100.581354 157.290268,100.688654 C157.504755,100.795955 157.786492,100.849604 158.135487,100.849604 C158.615355,100.849604 159.005242,100.741426 159.305159,100.525066 C159.605077,100.308706 159.755034,100.0387 159.755034,99.7150396 C159.755034,99.4582221 159.674148,99.2497809 159.512374,99.0897098 C159.3506,98.9296386 159.14157,98.8073883 158.885277,98.7229551 C158.628984,98.638522 158.286356,98.5488131 157.857383,98.4538259 C157.282995,98.3236581 156.802225,98.1715048 156.415059,97.9973615 C156.027892,97.8232181 155.720709,97.5857535 155.493498,97.2849604 C155.266288,96.9841674 155.152685,96.6103804 155.152685,96.1635884 C155.152685,95.7379046 155.27265,95.3597202 155.512584,95.0290237 C155.752518,94.6983273 156.09969,94.4441522 156.554111,94.2664908 C157.008531,94.0888294 157.542922,94 158.157299,94 C158.648073,94 159.072495,94.0589264 159.430579,94.176781 C159.788662,94.2946356 160.085849,94.4511864 160.322148,94.646438 C160.558446,94.8416896 160.731124,95.0466128 160.840185,95.2612137 C160.949246,95.4758146 161.003775,95.6851353 161.003775,95.8891821 C161.003775,96.0756386 160.935613,96.2436228 160.799287,96.3931398 C160.662961,96.5426569 160.49301,96.6174142 160.28943,96.6174142 C160.104026,96.6174142 159.963158,96.5725598 159.86682,96.4828496 C159.770483,96.3931394 159.665968,96.2462631 159.553272,96.0422164 C159.407857,95.7502184 159.233362,95.5224283 159.029782,95.3588391 C158.826201,95.1952498 158.499024,95.1134565 158.048238,95.1134565 C157.630171,95.1134565 157.292996,95.2022858 157.036703,95.3799472 C156.78041,95.5576086 156.652265,95.7713268 156.652265,96.0211082 C156.652265,96.1759023 156.695889,96.3095861 156.783138,96.4221636 C156.870386,96.5347411 156.990352,96.631486 157.143037,96.7124011 C157.295722,96.7933161 157.450223,96.8566401 157.606544,96.9023747 C157.762864,96.9481093 158.020971,97.0149512 158.380872,97.1029024 C158.831658,97.2049258 159.239721,97.3175016 159.605076,97.4406332 C159.97043,97.5637649 160.281249,97.7132797 160.537542,97.8891821 C160.793835,98.0650844 160.993777,98.2875976 161.137374,98.5567282 C161.280971,98.8258589 161.352768,99.1556709 161.352768,99.5461741 L161.352768,99.5461741 Z M162.792366,101.044855 L162.792366,94.9498681 C162.792366,94.6332438 162.86689,94.3957792 163.01594,94.237467 C163.16499,94.0791549 163.357661,94 163.59396,94 C163.837529,94 164.034745,94.0782754 164.185612,94.2348285 C164.33648,94.3913816 164.411913,94.6297258 164.411913,94.9498681 L164.411913,101.044855 C164.411913,101.364997 164.33648,101.604221 164.185612,101.762533 C164.034745,101.920845 163.837529,102 163.59396,102 C163.361296,102 163.169534,101.919966 163.018666,101.759894 C162.867798,101.599823 162.792366,101.361479 162.792366,101.044855 L162.792366,101.044855 Z M167.809144,94.9498681 L167.809144,100.580475 L171.091862,100.580475 C171.353609,100.580475 171.55446,100.64204 171.694421,100.765172 C171.834383,100.888303 171.904362,101.043095 171.904362,101.229551 C171.904362,101.419526 171.835292,101.573438 171.697148,101.691293 C171.559004,101.809147 171.357244,101.868074 171.091862,101.868074 L167.182047,101.868074 C166.829417,101.868074 166.575854,101.792437 166.421351,101.641161 C166.266848,101.489885 166.189597,101.245384 166.189597,100.907652 L166.189597,94.9498681 C166.189597,94.6332438 166.263212,94.3957792 166.410445,94.237467 C166.557677,94.0791549 166.751257,94 166.991191,94 C167.234761,94 167.431976,94.0782754 167.582844,94.2348285 C167.733712,94.3913816 167.809144,94.6297258 167.809144,94.9498681 L167.809144,94.9498681 Z M172.891359,95.0290237 L174.701762,100.216359 L176.517617,94.9920844 C176.612137,94.7176767 176.683025,94.5268255 176.730285,94.4195251 C176.777545,94.3122246 176.855704,94.2154798 176.964765,94.1292876 C177.073826,94.0430954 177.222874,94 177.411913,94 C177.550057,94 177.678201,94.0334209 177.796351,94.1002639 C177.9145,94.1671068 178.0072,94.2559361 178.074455,94.3667546 C178.141709,94.4775731 178.175336,94.5892694 178.175336,94.701847 C178.175336,94.779244 178.16443,94.8627964 178.142617,94.9525066 C178.120805,95.0422168 178.09354,95.1301667 178.060822,95.2163588 C178.028104,95.302551 177.995386,95.3913804 177.962668,95.4828496 L176.026846,100.538259 C175.957774,100.731751 175.888703,100.915566 175.819631,101.08971 C175.750559,101.263853 175.670582,101.416886 175.579698,101.548813 C175.488814,101.680739 175.36794,101.788918 175.217072,101.873351 C175.066205,101.957784 174.881712,102 174.663591,102 C174.445469,102 174.260977,101.958664 174.110109,101.875989 C173.959241,101.793315 173.837459,101.684257 173.744757,101.548813 C173.652055,101.413368 173.571169,101.259456 173.502097,101.087071 C173.433025,100.914687 173.363954,100.731751 173.294883,100.538259 L171.391779,95.525066 C171.35906,95.4335967 171.325434,95.3438879 171.290898,95.2559367 C171.256362,95.1679855 171.227279,95.0729996 171.203649,94.9709763 C171.180019,94.8689529 171.168205,94.782762 171.168205,94.7124011 C171.168205,94.5329806 171.242729,94.3693939 171.391779,94.2216359 C171.540828,94.0738779 171.728047,94 171.95344,94 C172.229727,94 172.425125,94.0817934 172.539639,94.2453826 C172.654153,94.4089718 172.771392,94.6701829 172.891359,95.0290237 L172.891359,95.0290237 Z M184.658977,95.3403694 L181.010906,95.3403694 L181.010906,97.2401055 L184.369966,97.2401055 C184.617171,97.2401055 184.801663,97.293755 184.923448,97.4010554 C185.045233,97.5083559 185.106124,97.6499551 185.106124,97.8258575 C185.106124,98.0017599 185.046142,98.1451182 184.926174,98.2559367 C184.806207,98.3667552 184.620807,98.4221636 184.369966,98.4221636 L181.010906,98.4221636 L181.010906,100.622691 L184.784396,100.622691 C185.038872,100.622691 185.230634,100.679859 185.35969,100.794195 C185.488745,100.908532 185.553272,101.060685 185.553272,101.25066 C185.553272,101.433598 185.488745,101.582233 185.35969,101.69657 C185.230634,101.810906 185.038872,101.868074 184.784396,101.868074 L180.383809,101.868074 C180.031178,101.868074 179.777615,101.792437 179.623112,101.641161 C179.468609,101.489885 179.391359,101.245384 179.391359,100.907652 L179.391359,95.0923483 C179.391359,94.8671932 179.425895,94.683378 179.494966,94.5408971 C179.564038,94.3984162 179.672189,94.2946353 179.819421,94.2295515 C179.966653,94.1644676 180.154781,94.1319261 180.383809,94.1319261 L184.658977,94.1319261 C184.917087,94.1319261 185.10885,94.1873345 185.23427,94.298153 C185.35969,94.4089715 185.422399,94.5540888 185.422399,94.7335092 C185.422399,94.9164477 185.35969,95.063324 185.23427,95.1741425 C185.10885,95.284961 184.917087,95.3403694 184.658977,95.3403694 L184.658977,95.3403694 Z M189.01594,98.5593668 L188.448826,98.5593668 L188.448826,101.044855 C188.448826,101.372033 188.374302,101.613016 188.225252,101.76781 C188.076202,101.922604 187.881713,102 187.641779,102 C187.383668,102 187.183726,101.919086 187.041946,101.757256 C186.900167,101.595426 186.829279,101.357961 186.829279,101.044855 L186.829279,95.0923483 C186.829279,94.7546157 186.907438,94.5101151 187.063758,94.3588391 C187.220079,94.207563 187.472733,94.1319261 187.821728,94.1319261 L190.455537,94.1319261 C190.819073,94.1319261 191.129892,94.1468776 191.388003,94.176781 C191.646114,94.2066844 191.878774,94.2673698 192.08599,94.3588391 C192.33683,94.4608624 192.558584,94.6068592 192.751258,94.7968338 C192.943933,94.9868083 193.090254,95.2075625 193.190227,95.4591029 C193.290199,95.7106433 193.340185,95.9771314 193.340185,96.2585752 C193.340185,96.835535 193.172051,97.2963923 192.83578,97.6411609 C192.499509,97.9859296 191.989657,98.2304302 191.306208,98.3746702 C191.593402,98.5224282 191.867868,98.7405439 192.129614,99.0290237 C192.39136,99.3175036 192.624929,99.6244487 192.830327,99.9498681 C193.035725,100.275287 193.195679,100.56904 193.310193,100.831135 C193.424707,101.093229 193.481963,101.273526 193.481963,101.372032 C193.481963,101.474055 193.448336,101.575197 193.381082,101.675462 C193.313828,101.775726 193.222036,101.854881 193.105705,101.912929 C192.989373,101.970977 192.854867,102 192.702181,102 C192.520413,102 192.36773,101.958664 192.244128,101.875989 C192.120525,101.793315 192.014192,101.688655 191.925126,101.562005 C191.836059,101.435356 191.715185,101.248902 191.5625,101.002639 L190.913591,99.9577836 C190.680927,99.5743165 190.472806,99.2823229 190.28922,99.0817942 C190.105634,98.8812655 189.919324,98.7440637 189.730285,98.6701847 C189.541246,98.5963057 189.303133,98.5593668 189.01594,98.5593668 L189.01594,98.5593668 Z M189.942953,95.3087071 L188.448826,95.3087071 L188.448826,97.4353562 L189.899329,97.4353562 C190.288313,97.4353562 190.615491,97.4028147 190.880872,97.3377309 C191.146254,97.272647 191.348923,97.1618302 191.488884,97.005277 C191.628846,96.8487239 191.698826,96.6332468 191.698826,96.3588391 C191.698826,96.1442382 191.642478,95.9551459 191.529782,95.7915567 C191.417086,95.6279675 191.260767,95.5057172 191.060822,95.4248021 C190.871783,95.3474051 190.499164,95.3087071 189.942953,95.3087071 L189.942953,95.3087071 Z" id="SILVER" fill="#FFFFFF" filter="url(#filter-10)" sketch:type="MSShapeGroup"></path>
            <path d="M10,133.207397 L17.8179551,133.207397 L17.8179551,135.592458 L13.8,145.792603 L10.5685786,145.792603 L14.7665835,135.592458 L10,135.592458 L10,133.207397 Z M22.0349127,139.438724 C21.3905205,138.948511 20.9325034,138.478731 20.6608479,138.029369 C20.3891923,137.580007 20.2533666,137.05995 20.2533666,136.469181 C20.2533666,135.381914 20.6339945,134.53191 21.3952618,133.919144 C22.1565292,133.306378 23.0709839,133 24.1386534,133 C25.1936877,133 26.076555,133.284382 26.7872818,133.853154 C27.4980085,134.421927 27.8533666,135.139952 27.8533666,136.007252 C27.8533666,136.510034 27.7254377,136.953104 27.4695761,137.336476 C27.2137144,137.719847 26.7320069,138.191199 26.0244389,138.750544 C26.921534,139.253326 27.5517023,139.771813 27.9149626,140.306019 C28.2782229,140.840225 28.4598504,141.456124 28.4598504,142.153735 C28.4598504,143.303849 28.0271032,144.232411 27.161596,144.939449 C26.2960888,145.646486 25.2568639,146 24.0438903,146 C22.8245991,146 21.7869536,145.654342 20.9309227,144.963017 C20.0748918,144.271691 19.6468828,143.442113 19.6468828,142.474257 C19.6468828,141.280149 20.4428848,140.268315 22.0349127,139.438724 L22.0349127,139.438724 Z M24.2049875,138.1095 C24.7672514,137.54387 25.0483791,136.984533 25.0483791,136.431472 C25.0483791,136.098379 24.9615138,135.826566 24.7877805,135.616026 C24.6140473,135.405486 24.4008325,135.300218 24.1481297,135.300218 C23.9017444,135.300218 23.6901089,135.4102 23.513217,135.630167 C23.336325,135.850134 23.2478803,136.123518 23.2478803,136.450326 C23.2478803,137.04738 23.5669129,137.600433 24.2049875,138.1095 L24.2049875,138.1095 Z M23.9301746,140.108049 C22.995174,140.698819 22.5276808,141.377564 22.5276808,142.144307 C22.5276808,142.571672 22.6714034,142.934613 22.9588529,143.23314 C23.2463024,143.531667 23.5858667,143.680928 23.9775561,143.680928 C24.3692455,143.680928 24.7040718,143.528525 24.9820449,143.223713 C25.260018,142.918901 25.3990025,142.527679 25.3990025,142.050036 C25.3990025,141.245585 24.9093981,140.598262 23.9301746,140.108049 L23.9301746,140.108049 Z" id="78" fill="#FFFFFF" filter="url(#filter-11)" sketch:type="MSShapeGroup"></path>
            <path d="M36,151 L49.3903509,151 C52.8569513,151 55.5421793,151.925185 57.4461153,153.775582 C59.3500513,155.62598 60.302005,158.249571 60.302005,161.646436 C60.302005,163.416381 59.9876807,165.19077 59.3590226,166.969654 C58.7303644,168.748539 57.4057119,170.294983 55.3850251,171.609033 C53.3643383,172.923083 50.8272918,173.580099 47.7738095,173.580099 L44.8101504,173.580099 L44.8101504,188.410021 L36,188.410021 L36,151 Z M44.8101504,158.213832 L44.8101504,166.232181 L46.75,166.232181 C48.1869328,166.232181 49.3319715,165.861213 50.1851504,165.119266 C51.0383292,164.377319 51.4649123,163.335928 51.4649123,161.99506 C51.4649123,160.725705 51.1371169,159.778173 50.4815163,159.152435 C49.8259157,158.526696 48.8425295,158.213832 47.5313283,158.213832 L44.8101504,158.213832 Z M66.1484962,155.156669 L73.2612782,155.156669 L73.2612782,162.853211 L77.5181704,162.853211 L77.5181704,169.101623 L73.6384712,169.101623 L73.6384712,179.560339 C73.6384712,181.16938 74.2850813,181.973888 75.5783208,181.973888 C76.2069789,181.973888 76.853589,181.732536 77.5181704,181.249824 L77.5181704,188.168666 C75.9375443,188.722892 74.3299998,189 72.6954887,189 C70.037163,189 68.0838617,188.369802 66.8355263,187.109386 C65.5871909,185.84897 64.9630326,183.895802 64.9630326,181.249824 L64.9630326,169.101623 L61.8107769,169.101623 L61.8107769,162.853211 L65.447995,162.853211 L66.1484962,155.156669 Z" id="Pt" fill="#FFFFFF" filter="url(#filter-12)" sketch:type="MSShapeGroup"></path>
            <path d="M32.1042305,215.854881 L30.6203101,215.854881 L30.6203101,218.044855 C30.6203101,218.357961 30.5439326,218.595426 30.3911753,218.757256 C30.2384181,218.919086 30.0456558,219 29.8128828,219 C29.5691986,219 29.3727994,218.919966 29.2236792,218.759894 C29.074559,218.599823 29,218.364997 29,218.055409 L29,212.092348 C29,211.74758 29.081833,211.50132 29.2455015,211.353562 C29.40917,211.205804 29.6692172,211.131926 30.0256508,211.131926 L32.1042305,211.131926 C32.7188966,211.131926 33.1917097,211.17766 33.5226838,211.269129 C33.8500208,211.35708 34.1327993,211.503077 34.3710279,211.707124 C34.6092566,211.911171 34.7901985,212.160948 34.9138591,212.456464 C35.0375198,212.75198 35.0993492,213.084431 35.0993492,213.453826 C35.0993492,214.241868 34.8483945,214.839048 34.3464778,215.245383 C33.844561,215.651717 33.0971527,215.854881 32.1042305,215.854881 L32.1042305,215.854881 Z M31.711428,212.308707 L30.6203101,212.308707 L30.6203101,214.672823 L31.711428,214.672823 C32.0933212,214.672823 32.41247,214.634125 32.668884,214.556728 C32.925298,214.479331 33.120788,214.352683 33.2553599,214.176781 C33.3899318,214.000879 33.4572167,213.77045 33.4572167,213.485488 C33.4572167,213.144238 33.3535615,212.866316 33.1462481,212.651715 C32.9134751,212.423042 32.4352065,212.308707 31.711428,212.308707 L31.711428,212.308707 Z M38.0399119,211.949868 L38.0399119,217.580475 L41.3241769,217.580475 C41.5860465,217.580475 41.786992,217.64204 41.9270195,217.765172 C42.067047,217.888303 42.1370597,218.043095 42.1370597,218.229551 C42.1370597,218.419526 42.0679563,218.573438 41.9297473,218.691293 C41.7915384,218.809147 41.5896836,218.868074 41.3241769,218.868074 L37.4125191,218.868074 C37.0597226,218.868074 36.8060402,218.792437 36.6514644,218.641161 C36.4968886,218.489885 36.4196018,218.245384 36.4196018,217.907652 L36.4196018,211.949868 C36.4196018,211.633244 36.4932516,211.395779 36.6405532,211.237467 C36.7878549,211.079155 36.9815264,211 37.2215735,211 C37.4652577,211 37.6625662,211.078275 37.813505,211.234828 C37.9644437,211.391382 38.0399119,211.629726 38.0399119,211.949868 L38.0399119,211.949868 Z M48.1709418,217.992084 L47.7890505,217.021108 L44.5375191,217.021108 L44.1556279,218.013193 C44.0065077,218.400178 43.8792119,218.661389 43.7737366,218.796834 C43.6682613,218.932279 43.4955027,219 43.2554556,219 C43.0517792,219 42.8717466,218.927881 42.7153522,218.783641 C42.5589579,218.639401 42.4807619,218.475814 42.4807619,218.292876 C42.4807619,218.187335 42.498947,218.078277 42.5353178,217.965699 C42.5716885,217.853122 42.6316994,217.696571 42.7153522,217.496042 L44.7611983,212.472296 C44.8193916,212.328056 44.8894043,212.154794 44.9712385,211.952507 C45.0530728,211.750219 45.1403613,211.582235 45.2331068,211.448549 C45.3258523,211.314863 45.4476926,211.206685 45.5986313,211.124011 C45.7495701,211.041336 45.9359675,211 46.1578292,211 C46.3833281,211 46.571544,211.041336 46.7224828,211.124011 C46.8734215,211.206685 46.9952618,211.313104 47.0880073,211.443272 C47.1807528,211.57344 47.2589488,211.71328 47.3225976,211.862797 C47.3862465,212.012314 47.4671703,212.21196 47.5653714,212.461741 L49.6548622,217.453826 C49.8185307,217.833775 49.9003637,218.109938 49.9003637,218.282322 C49.9003637,218.461742 49.823077,218.626209 49.6685011,218.775726 C49.5139253,218.925243 49.3275279,219 49.1093032,219 C48.9820055,219 48.8728948,218.978013 48.7819678,218.934037 C48.6910409,218.890061 48.6146634,218.830255 48.5528331,218.754617 C48.4910028,218.678979 48.4246271,218.562886 48.3537041,218.406332 C48.282781,218.249779 48.2218609,218.111698 48.1709418,217.992084 L48.1709418,217.992084 Z M44.9630551,215.844327 L47.3526034,215.844327 L46.1469181,212.651715 L44.9630551,215.844327 Z M55.3013974,212.424802 L53.5337864,212.424802 L53.5337864,218.044855 C53.5337864,218.368515 53.4592274,218.608618 53.3101072,218.765172 C53.160987,218.921725 52.9682248,219 52.7318147,219 C52.4917676,219 52.2962776,218.920845 52.1453388,218.762533 C51.9944001,218.604221 51.9189319,218.364997 51.9189319,218.044855 L51.9189319,212.424802 L50.1513208,212.424802 C49.8749029,212.424802 49.6694111,212.365876 49.5348392,212.248021 C49.4002673,212.130167 49.3329824,211.974495 49.3329824,211.781003 C49.3329824,211.580474 49.4029951,211.422164 49.5430226,211.306069 C49.6830501,211.189973 49.8858141,211.131926 50.1513208,211.131926 L55.3013974,211.131926 C55.5814524,211.131926 55.789672,211.191732 55.9260624,211.311346 C56.0624528,211.430959 56.130647,211.58751 56.130647,211.781003 C56.130647,211.974495 56.0615436,212.130167 55.9233346,212.248021 C55.7851256,212.365876 55.5778153,212.424802 55.3013974,212.424802 L55.3013974,212.424802 Z M57.1562979,218.044855 L57.1562979,211.949868 C57.1562979,211.633244 57.2308568,211.395779 57.379977,211.237467 C57.5290972,211.079155 57.7218595,211 57.9582695,211 C58.2019537,211 58.3992623,211.078275 58.550201,211.234828 C58.7011397,211.391382 58.776608,211.629726 58.776608,211.949868 L58.776608,218.044855 C58.776608,218.364997 58.7011397,218.604221 58.550201,218.762533 C58.3992623,218.920845 58.2019537,219 57.9582695,219 C57.7254965,219 57.5336436,218.919966 57.3827048,218.759894 C57.2317661,218.599823 57.1562979,218.361479 57.1562979,218.044855 L57.1562979,218.044855 Z M62.6991769,211.939314 L65.8143185,216.498681 L65.8143185,211.897098 C65.8143185,211.598064 65.8806942,211.373791 66.0134475,211.224274 C66.1462009,211.074757 66.3253243,211 66.5508231,211 C66.7835961,211 66.9672658,211.074757 67.1018377,211.224274 C67.2364096,211.373791 67.3036945,211.598064 67.3036945,211.897098 L67.3036945,217.98153 C67.3036945,218.660514 67.0127326,219 66.4308002,219 C66.285317,219 66.1543842,218.979772 66.0379977,218.939314 C65.9216112,218.898856 65.8125005,218.834653 65.7106623,218.746702 C65.6088241,218.658751 65.5142615,218.555849 65.4269717,218.437995 C65.3396818,218.32014 65.2523932,218.199649 65.1651034,218.076517 L62.12634,213.569921 L62.12634,218.102902 C62.12634,218.398418 62.055418,218.621811 61.913572,218.773087 C61.7717259,218.924363 61.5898748,219 61.368013,219 C61.1388771,219 60.9552074,218.923484 60.8169985,218.770449 C60.6787895,218.617413 60.6096861,218.3949 60.6096861,218.102902 L60.6096861,212.134565 C60.6096861,211.881265 60.6387823,211.682499 60.6969755,211.538259 C60.76608,211.379946 60.8806462,211.25066 61.0406776,211.150396 C61.2007091,211.050131 61.3734677,211 61.5589587,211 C61.7044418,211 61.8290098,211.022867 61.9326665,211.068602 C62.0363233,211.114336 62.1272488,211.175901 62.205446,211.253298 C62.2836432,211.330695 62.3636577,211.430958 62.445492,211.55409 C62.5273262,211.677221 62.611887,211.805628 62.6991769,211.939314 L62.6991769,211.939314 Z M69.0876723,215.670185 L69.0876723,211.949868 C69.0876723,211.633244 69.161322,211.395779 69.3086237,211.237467 C69.4559253,211.079155 69.6495968,211 69.889644,211 C70.1406023,211 70.3397294,211.079155 70.487031,211.237467 C70.6343327,211.395779 70.7079824,211.633244 70.7079824,211.949868 L70.7079824,215.754617 C70.7079824,216.187337 70.7579915,216.548811 70.8580111,216.83905 C70.9580307,217.129289 71.1353356,217.354441 71.3899311,217.514512 C71.6445265,217.674583 72.0009548,217.754617 72.4592266,217.754617 C73.0920782,217.754617 73.5394321,217.59191 73.8013017,217.266491 C74.0631713,216.941071 74.1941041,216.447673 74.1941041,215.78628 L74.1941041,211.949868 C74.1941041,211.629726 74.2668446,211.391382 74.4123277,211.234828 C74.5578108,211.078275 74.7523916,211 74.9960758,211 C75.23976,211 75.4370685,211.078275 75.5880073,211.234828 C75.738946,211.391382 75.8144142,211.629726 75.8144142,211.949868 L75.8144142,215.670185 C75.8144142,216.275289 75.7534941,216.780121 75.631652,217.184697 C75.5098099,217.589272 75.2797682,217.944589 74.9415199,218.25066 C74.6505537,218.510995 74.3123105,218.700967 73.9267802,218.82058 C73.54125,218.940194 73.0902591,219 72.573794,219 C71.9591279,219 71.429941,218.935797 70.9862175,218.807388 C70.542494,218.678979 70.1806101,218.480212 69.9005551,218.211082 C69.6205001,217.941951 69.4150083,217.597188 69.2840735,217.176781 C69.1531387,216.756374 69.0876723,216.254181 69.0876723,215.670185 L69.0876723,215.670185 Z M80.2661753,217.701847 L78.9841118,212.773087 L78.9841118,218.113456 C78.9841118,218.408972 78.9159176,218.630606 78.7795272,218.778364 C78.6431368,218.926122 78.4621948,219 78.236696,219 C78.0184713,219 77.8402572,218.927002 77.7020482,218.781003 C77.5638393,218.635004 77.4947358,218.412491 77.4947358,218.113456 L77.4947358,211.992084 C77.4947358,211.654352 77.5856614,211.426562 77.7675153,211.308707 C77.9493692,211.190853 78.1948683,211.131926 78.5040199,211.131926 L79.0059342,211.131926 C79.3078116,211.131926 79.5269423,211.158311 79.6633327,211.211082 C79.7997231,211.263853 79.9006505,211.358838 79.9661179,211.496042 C80.0315853,211.633246 80.1061443,211.856639 80.1897971,212.166227 L81.3518377,216.403694 L82.5138783,212.166227 C82.597531,211.856639 82.67209,211.633246 82.7375574,211.496042 C82.8030248,211.358838 82.9039522,211.263853 83.0403426,211.211082 C83.1767331,211.158311 83.3958637,211.131926 83.6977412,211.131926 L84.1996554,211.131926 C84.5088071,211.131926 84.7543061,211.190853 84.93616,211.308707 C85.1180139,211.426562 85.2089395,211.654352 85.2089395,211.992084 L85.2089395,218.113456 C85.2089395,218.408972 85.1407453,218.630606 85.0043549,218.778364 C84.8679645,218.926122 84.6852041,219 84.4560681,219 C84.2414806,219 84.0650849,218.926122 83.926876,218.778364 C83.788667,218.630606 83.7195636,218.408972 83.7195636,218.113456 L83.7195636,212.773087 L82.4375,217.701847 C82.3538472,218.021989 82.285653,218.256815 82.2329154,218.406332 C82.1801778,218.555849 82.0828874,218.692172 81.9410413,218.815303 C81.7991953,218.938435 81.602796,219 81.3518377,219 C81.1627096,219 81.0026806,218.960423 80.8717458,218.881266 C80.740811,218.80211 80.6389743,218.700968 80.5662328,218.577836 C80.4934912,218.454705 80.4362081,218.318382 80.3943817,218.168865 C80.3525553,218.019348 80.3098203,217.863677 80.2661753,217.701847 L80.2661753,217.701847 Z" id="PLATINUM" fill="#FFFFFF" filter="url(#filter-13)" sketch:type="MSShapeGroup"></path>
            <path d="M127,133.207397 L134.817955,133.207397 L134.817955,135.592458 L130.8,145.792603 L127.568579,145.792603 L131.766584,135.592458 L127,135.592458 L127,133.207397 Z M142.048379,140.541697 C141.694595,140.950208 141.339237,141.258157 140.982294,141.465555 C140.625351,141.672952 140.266835,141.77665 139.906733,141.77665 C139.060179,141.77665 138.319455,141.377572 137.684539,140.579405 C137.049623,139.781238 136.73217,138.794543 136.73217,137.619289 C136.73217,136.337194 137.114377,135.246802 137.878803,134.348078 C138.643229,133.449355 139.594009,133 140.731172,133 C142.026274,133 143.084451,133.578191 143.905736,134.73459 C144.72702,135.89099 145.137656,137.490442 145.137656,139.532995 C145.137656,140.676825 144.956028,141.740508 144.592768,142.724075 C144.229508,143.707643 143.657776,144.499514 142.877556,145.09971 C142.097336,145.699906 141.16077,146 140.06783,146 C139.290769,146 138.447386,145.814602 137.537656,145.4438 L137.537656,142.662799 C138.365258,143.228429 139.08545,143.51124 139.698254,143.51124 C140.361599,143.51124 140.889109,143.262995 141.280798,142.766497 C141.672487,142.27 141.928345,141.528407 142.048379,140.541697 L142.048379,140.541697 Z M142.048379,137.864394 C141.985203,137.116506 141.838322,136.535172 141.607731,136.120377 C141.377139,135.705582 141.107067,135.498187 140.797506,135.498187 C140.481628,135.498187 140.22577,135.682014 140.029925,136.049674 C139.83408,136.417333 139.73616,136.871402 139.73616,137.411893 C139.73616,137.946099 139.827763,138.375029 140.010973,138.698695 C140.194182,139.022361 140.437405,139.184191 140.740648,139.184191 C140.955446,139.184191 141.171819,139.074209 141.389776,138.854242 C141.607732,138.634275 141.827264,138.304329 142.048379,137.864394 L142.048379,137.864394 Z" id="79" fill="#FFFFFF" filter="url(#filter-14)" sketch:type="MSShapeGroup"></path>
            <path d="M156.905987,151 L165.69619,151 L175.68382,188.410021 L166.049975,188.410021 L164.716477,180.981651 L157.477486,180.981651 L156.062345,188.410021 L147,188.410021 L156.905987,151 Z M161.124196,161.217361 L158.702128,174.277347 L163.491836,174.277347 L161.124196,161.217361 Z M178.05146,162.853211 L186.651163,162.853211 L186.651163,178.675371 C186.651163,179.640795 186.791768,180.369322 187.072984,180.860974 C187.354199,181.352625 187.766944,181.598447 188.311232,181.598447 C188.946234,181.598447 189.476907,181.316869 189.903266,180.753705 C190.329624,180.190541 190.542801,179.497769 190.542801,178.675371 L190.542801,162.853211 L199.305789,162.853211 L199.305789,188.410021 L191.849085,188.410021 L191.032657,185.862385 C190.17994,186.899323 189.268271,187.681484 188.297625,188.208892 C187.326978,188.7363 186.288312,189 185.181593,189 C183.1133,189 181.407891,188.168675 180.065314,186.505999 C178.722738,184.843323 178.05146,182.778417 178.05146,180.311221 L178.05146,162.853211 Z" id="Au" fill="#FFFFFF" filter="url(#filter-15)" sketch:type="MSShapeGroup"></path>
            <path d="M165.591657,215.722955 L165.591657,217.205805 C165.591657,217.402815 165.57176,217.560246 165.531965,217.6781 C165.492171,217.795955 165.418914,217.902374 165.312193,217.997361 C165.205471,218.092349 165.068906,218.183817 164.902493,218.271768 C164.421342,218.525067 163.958286,218.709762 163.513312,218.825858 C163.068338,218.941953 162.583576,219 162.059013,219 C161.447626,219 160.890512,218.908532 160.387655,218.725594 C159.884798,218.542655 159.456109,218.277047 159.101577,217.92876 C158.747045,217.580473 158.474819,217.158314 158.284891,216.662269 C158.094963,216.166224 158,215.61214 158,215 C158,214.398414 158.092249,213.847848 158.276751,213.348285 C158.461252,212.848722 158.732574,212.424804 159.090724,212.076517 C159.448874,211.72823 159.884798,211.461742 160.398508,211.277045 C160.912218,211.092347 161.494655,211 162.145837,211 C162.681253,211 163.155162,211.06948 163.567577,211.208443 C163.979992,211.347406 164.314622,211.522426 164.571477,211.733509 C164.828332,211.944592 165.021875,212.167985 165.152111,212.403694 C165.282348,212.639403 165.347465,212.848724 165.347465,213.031662 C165.347465,213.228673 165.272399,213.396657 165.122266,213.53562 C164.972132,213.674583 164.792155,213.744063 164.58233,213.744063 C164.466564,213.744063 164.355322,213.717678 164.248601,213.664908 C164.14188,213.612137 164.052343,213.538259 163.97999,213.443272 C163.781018,213.14072 163.612798,212.91205 163.475326,212.757256 C163.337855,212.602462 163.152452,212.472296 162.919111,212.366755 C162.685771,212.261213 162.388222,212.208443 162.026454,212.208443 C161.653833,212.208443 161.321012,212.270888 161.02798,212.395778 C160.734949,212.520669 160.484428,212.701846 160.276412,212.939314 C160.068395,213.176782 159.90922,213.467896 159.798881,213.812665 C159.688542,214.157434 159.633373,214.539136 159.633373,214.957784 C159.633373,215.86544 159.847717,216.563762 160.276412,217.05277 C160.705106,217.541779 161.302919,217.78628 162.069866,217.78628 C162.442487,217.78628 162.792492,217.738787 163.119891,217.643799 C163.447291,217.548812 163.779208,217.413369 164.115652,217.237467 L164.115652,215.98153 L162.86756,215.98153 C162.567293,215.98153 162.340287,215.937555 162.186536,215.849604 C162.032784,215.761653 161.95591,215.612138 161.95591,215.401055 C161.95591,215.228671 162.020123,215.086192 162.14855,214.973615 C162.276978,214.861037 162.451528,214.804749 162.672206,214.804749 L164.500933,214.804749 C164.725229,214.804749 164.915154,214.824098 165.070714,214.862797 C165.226274,214.901495 165.351986,214.987686 165.447855,215.121372 C165.543723,215.255058 165.591657,215.455584 165.591657,215.722955 L165.591657,215.722955 Z M170.627438,211 C171.452268,211 172.160418,211.162707 172.751908,211.488127 C173.343398,211.813546 173.791079,212.276162 174.094964,212.875989 C174.398848,213.475817 174.550789,214.180295 174.550789,214.989446 C174.550789,215.587514 174.467583,216.131044 174.30117,216.620053 C174.134757,217.109061 173.885141,217.53298 173.552315,217.891821 C173.219488,218.250661 172.810697,218.525065 172.325928,218.71504 C171.84116,218.905014 171.285855,219 170.659997,219 C170.037756,219 169.480642,218.902376 168.988638,218.707124 C168.496634,218.511872 168.086034,218.236589 167.756826,217.881266 C167.427617,217.525944 167.178905,217.098507 167.010683,216.598945 C166.842461,216.099382 166.758352,215.55937 166.758352,214.978892 C166.758352,214.384342 166.846079,213.839053 167.021536,213.343008 C167.196994,212.846963 167.451132,212.424804 167.783958,212.076517 C168.116784,211.72823 168.521958,211.461742 168.999491,211.277045 C169.477025,211.092347 170.019668,211 170.627438,211 L170.627438,211 Z M172.917416,214.978892 C172.917416,214.412486 172.823357,213.921726 172.635238,213.506596 C172.447119,213.091467 172.178511,212.777486 171.829405,212.564644 C171.480299,212.351802 171.079647,212.245383 170.627438,212.245383 C170.305464,212.245383 170.007915,212.304309 169.73478,212.422164 C169.461646,212.540018 169.2265,212.71152 169.029337,212.936675 C168.832174,213.161831 168.676616,213.449427 168.562659,213.799472 C168.448702,214.149518 168.391725,214.542654 168.391725,214.978892 C168.391725,215.418648 168.448702,215.816181 168.562659,216.171504 C168.676616,216.526827 168.8376,216.821459 169.045616,217.055409 C169.253633,217.289359 169.492396,217.464379 169.761913,217.580475 C170.03143,217.696571 170.32717,217.754617 170.649144,217.754617 C171.061559,217.754617 171.440505,217.654355 171.785993,217.453826 C172.131481,217.253297 172.40642,216.943714 172.610819,216.525066 C172.815218,216.106418 172.917416,215.591032 172.917416,214.978892 L172.917416,214.978892 Z M177.508225,211.949868 L177.508225,217.580475 L180.77497,217.580475 C181.035443,217.580475 181.235317,217.64204 181.374597,217.765172 C181.513878,217.888303 181.583517,218.043095 181.583517,218.229551 C181.583517,218.419526 181.514782,218.573438 181.37731,218.691293 C181.239839,218.809147 181.039061,218.868074 180.77497,218.868074 L176.884178,218.868074 C176.533264,218.868074 176.280935,218.792437 176.127183,218.641161 C175.973432,218.489885 175.896558,218.245384 175.896558,217.907652 L175.896558,211.949868 C175.896558,211.633244 175.969814,211.395779 176.11633,211.237467 C176.262846,211.079155 176.455485,211 176.694251,211 C176.936636,211 177.132892,211.078275 177.283025,211.234828 C177.433159,211.391382 177.508225,211.629726 177.508225,211.949868 L177.508225,211.949868 Z M183.640156,211.131926 L185.740207,211.131926 C186.286476,211.131926 186.754958,211.181178 187.145667,211.279683 C187.536376,211.378189 187.890903,211.562883 188.209259,211.833773 C189.037707,212.52331 189.451925,213.571673 189.451925,214.978892 C189.451925,215.443274 189.410322,215.867192 189.327115,216.25066 C189.243909,216.634127 189.115483,216.97977 188.941835,217.287599 C188.768186,217.595428 188.545703,217.870711 188.274377,218.113456 C188.060934,218.299913 187.827597,218.449428 187.57436,218.562005 C187.321122,218.674583 187.048896,218.753738 186.757673,218.799472 C186.46645,218.845207 186.138151,218.868074 185.772766,218.868074 L183.672715,218.868074 C183.379683,218.868074 183.159008,218.824978 183.010683,218.738786 C182.862359,218.652594 182.765587,218.531223 182.720366,218.37467 C182.675145,218.218117 182.652535,218.014953 182.652535,217.765172 L182.652535,212.092348 C182.652535,211.754616 182.730314,211.510115 182.885874,211.358839 C183.041434,211.207563 183.292859,211.131926 183.640156,211.131926 L183.640156,211.131926 Z M184.264202,212.372032 L184.264202,217.622691 L185.485162,217.622691 C185.75287,217.622691 185.962692,217.615655 186.114635,217.601583 C186.266577,217.587511 186.423944,217.552331 186.586739,217.496042 C186.749534,217.439753 186.890622,217.360599 187.010005,217.258575 C187.549039,216.815301 187.818552,216.051896 187.818552,214.968338 C187.818552,214.204921 187.700075,213.633247 187.463117,213.253298 C187.226159,212.873349 186.934036,212.631487 186.586739,212.527704 C186.239442,212.423922 185.819798,212.372032 185.327794,212.372032 L184.264202,212.372032 Z" id="GOLD" fill="#FFFFFF" filter="url(#filter-16)" sketch:type="MSShapeGroup"></path>
        </g>
    </g>
</svg>