<?xml version="1.0" encoding="UTF-8" standalone="no"?>
<svg width="224px" height="225px" viewBox="0 0 224 225" version="1.1" xmlns="http://www.w3.org/2000/svg" xmlns:xlink="http://www.w3.org/1999/xlink" xmlns:sketch="http://www.bohemiancoding.com/sketch/ns">
    <!-- Generator: Sketch 3.3.2 (12043) - http://www.bohemiancoding.com/sketch -->
    <title>Artboard 1</title>
    <desc>Created with Sketch.</desc>
    <defs>
        <linearGradient x1="50%" y1="0%" x2="50%" y2="100%" id="linearGradient-1">
            <stop stop-color="#FFFFFF" stop-opacity="0.5" offset="0%"></stop>
            <stop stop-color="#000000" stop-opacity="0.5" offset="100%"></stop>
        </linearGradient>
        <radialGradient cx="50%" cy="0%" fx="50%" fy="0%" r="100%" id="radialGradient-2">
            <stop stop-color="#F9F9F9" stop-opacity="0.5" offset="0%"></stop>
            <stop stop-color="#000000" stop-opacity="0.5" offset="100%"></stop>
        </radialGradient>
        <rect id="path-3" x="114" y="4" width="107" height="107"></rect>
        <radialGradient cx="50%" cy="0%" fx="50%" fy="0%" r="100%" id="radialGradient-4">
            <stop stop-color="#FFFFE8" stop-opacity="0.5" offset="0%"></stop>
            <stop stop-color="#000000" stop-opacity="0.5" offset="100%"></stop>
        </radialGradient>
        <rect id="path-5" x="114" y="114" width="107" height="107"></rect>
        <radialGradient cx="50%" cy="0%" fx="50%" fy="0%" r="100%" id="radialGradient-6">
            <stop stop-color="#E8FFFB" stop-opacity="0.5" offset="0%"></stop>
            <stop stop-color="#000000" stop-opacity="0.5" offset="100%"></stop>
        </radialGradient>
        <rect id="path-7" x="4" y="114" width="107" height="107"></rect>
        <filter x="-50%" y="-50%" width="200%" height="200%" filterUnits="objectBoundingBox" id="filter-8">
            <feOffset dx="0" dy="1" in="SourceAlpha" result="shadowOffsetInner1"></feOffset>
            <feGaussianBlur stdDeviation="0.5" in="shadowOffsetInner1" result="shadowBlurInner1"></feGaussianBlur>
            <feComposite in="shadowBlurInner1" in2="SourceAlpha" operator="arithmetic" k2="-1" k3="1" result="shadowInnerInner1"></feComposite>
            <feColorMatrix values="0 0 0 0 0   0 0 0 0 0   0 0 0 0 0  0 0 0 0.0899569746 0" in="shadowInnerInner1" type="matrix" result="shadowMatrixInner1"></feColorMatrix>
            <feMerge>
                <feMergeNode in="SourceGraphic"></feMergeNode>
                <feMergeNode in="shadowMatrixInner1"></feMergeNode>
            </feMerge>
        </filter>
        <filter x="-50%" y="-50%" width="200%" height="200%" filterUnits="objectBoundingBox" id="filter-9">
            <feOffset dx="0" dy="1" in="SourceAlpha" result="shadowOffsetInner1"></feOffset>
            <feGaussianBlur stdDeviation="0" in="shadowOffsetInner1" result="shadowBlurInner1"></feGaussianBlur>
            <feComposite in="shadowBlurInner1" in2="SourceAlpha" operator="arithmetic" k2="-1" k3="1" result="shadowInnerInner1"></feComposite>
            <feColorMatrix values="0 0 0 0 0   0 0 0 0 0   0 0 0 0 0  0 0 0 0.14678442 0" in="shadowInnerInner1" type="matrix" result="shadowMatrixInner1"></feColorMatrix>
            <feMerge>
                <feMergeNode in="SourceGraphic"></feMergeNode>
                <feMergeNode in="shadowMatrixInner1"></feMergeNode>
            </feMerge>
        </filter>
        <filter x="-50%" y="-50%" width="200%" height="200%" filterUnits="objectBoundingBox" id="filter-10">
            <feOffset dx="0" dy="1" in="SourceAlpha" result="shadowOffsetInner1"></feOffset>
            <feGaussianBlur stdDeviation="0" in="shadowOffsetInner1" result="shadowBlurInner1"></feGaussianBlur>
            <feComposite in="shadowBlurInner1" in2="SourceAlpha" operator="arithmetic" k2="-1" k3="1" result="shadowInnerInner1"></feComposite>
            <feColorMatrix values="0 0 0 0 0   0 0 0 0 0   0 0 0 0 0  0 0 0 0.164914515 0" in="shadowInnerInner1" type="matrix" result="shadowMatrixInner1"></feColorMatrix>
            <feMerge>
                <feMergeNode in="SourceGraphic"></feMergeNode>
                <feMergeNode in="shadowMatrixInner1"></feMergeNode>
            </feMerge>
        </filter>
        <filter x="-50%" y="-50%" width="200%" height="200%" filterUnits="objectBoundingBox" id="filter-11">
            <feOffset dx="0" dy="1" in="SourceAlpha" result="shadowOffsetInner1"></feOffset>
            <feGaussianBlur stdDeviation="0" in="shadowOffsetInner1" result="shadowBlurInner1"></feGaussianBlur>
            <feComposite in="shadowBlurInner1" in2="SourceAlpha" operator="arithmetic" k2="-1" k3="1" result="shadowInnerInner1"></feComposite>
            <feColorMatrix values="0 0 0 0 0   0 0 0 0 0   0 0 0 0 0  0 0 0 0.14678442 0" in="shadowInnerInner1" type="matrix" result="shadowMatrixInner1"></feColorMatrix>
            <feMerge>
                <feMergeNode in="SourceGraphic"></feMergeNode>
                <feMergeNode in="shadowMatrixInner1"></feMergeNode>
            </feMerge>
        </filter>
        <filter x="-50%" y="-50%" width="200%" height="200%" filterUnits="objectBoundingBox" id="filter-12">
            <feOffset dx="0" dy="1" in="SourceAlpha" result="shadowOffsetInner1"></feOffset>
            <feGaussianBlur stdDeviation="0.5" in="shadowOffsetInner1" result="shadowBlurInner1"></feGaussianBlur>
            <feComposite in="shadowBlurInner1" in2="SourceAlpha" operator="arithmetic" k2="-1" k3="1" result="shadowInnerInner1"></feComposite>
            <feColorMatrix values="0 0 0 0 0   0 0 0 0 0   0 0 0 0 0  0 0 0 0.223703578 0" in="shadowInnerInner1" type="matrix" result="shadowMatrixInner1"></feColorMatrix>
            <feMerge>
                <feMergeNode in="SourceGraphic"></feMergeNode>
                <feMergeNode in="shadowMatrixInner1"></feMergeNode>
            </feMerge>
        </filter>
        <filter x="-50%" y="-50%" width="200%" height="200%" filterUnits="objectBoundingBox" id="filter-13">
            <feOffset dx="0" dy="1" in="SourceAlpha" result="shadowOffsetInner1"></feOffset>
            <feGaussianBlur stdDeviation="0" in="shadowOffsetInner1" result="shadowBlurInner1"></feGaussianBlur>
            <feComposite in="shadowBlurInner1" in2="SourceAlpha" operator="arithmetic" k2="-1" k3="1" result="shadowInnerInner1"></feComposite>
            <feColorMatrix values="0 0 0 0 0   0 0 0 0 0   0 0 0 0 0  0 0 0 0.164914515 0" in="shadowInnerInner1" type="matrix" result="shadowMatrixInner1"></feColorMatrix>
            <feMerge>
                <feMergeNode in="SourceGraphic"></feMergeNode>
                <feMergeNode in="shadowMatrixInner1"></feMergeNode>
            </feMerge>
        </filter>
        <filter x="-50%" y="-50%" width="200%" height="200%" filterUnits="objectBoundingBox" id="filter-14">
            <feOffset dx="0" dy="1" in="SourceAlpha" result="shadowOffsetInner1"></feOffset>
            <feGaussianBlur stdDeviation="0" in="shadowOffsetInner1" result="shadowBlurInner1"></feGaussianBlur>
            <feComposite in="shadowBlurInner1" in2="SourceAlpha" operator="arithmetic" k2="-1" k3="1" result="shadowInnerInner1"></feComposite>
            <feColorMatrix values="0 0 0 0 0   0 0 0 0 0   0 0 0 0 0  0 0 0 0.14678442 0" in="shadowInnerInner1" type="matrix" result="shadowMatrixInner1"></feColorMatrix>
            <feMerge>
                <feMergeNode in="SourceGraphic"></feMergeNode>
                <feMergeNode in="shadowMatrixInner1"></feMergeNode>
            </feMerge>
        </filter>
        <filter x="-50%" y="-50%" width="200%" height="200%" filterUnits="objectBoundingBox" id="filter-15">
            <feOffset dx="0" dy="1" in="SourceAlpha" result="shadowOffsetInner1"></feOffset>
            <feGaussianBlur stdDeviation="0.5" in="shadowOffsetInner1" result="shadowBlurInner1"></feGaussianBlur>
            <feComposite in="shadowBlurInner1" in2="SourceAlpha" operator="arithmetic" k2="-1" k3="1" result="shadowInnerInner1"></feComposite>
            <feColorMatrix values="0 0 0 0 0   0 0 0 0 0   0 0 0 0 0  0 0 0 0.223703578 0" in="shadowInnerInner1" type="matrix" result="shadowMatrixInner1"></feColorMatrix>
            <feMerge>
                <feMergeNode in="SourceGraphic"></feMergeNode>
                <feMergeNode in="shadowMatrixInner1"></feMergeNode>
            </feMerge>
        </filter>
        <filter x="-50%" y="-50%" width="200%" height="200%" filterUnits="objectBoundingBox" id="filter-16">
            <feOffset dx="0" dy="1" in="SourceAlpha" result="shadowOffsetInner1"></feOffset>
            <feGaussianBlur stdDeviation="0" in="shadowOffsetInner1" result="shadowBlurInner1"></feGaussianBlur>
            <feComposite in="shadowBlurInner1" in2="SourceAlpha" operator="arithmetic" k2="-1" k3="1" result="shadowInnerInner1"></feComposite>
            <feColorMatrix values="0 0 0 0 0   0 0 0 0 0   0 0 0 0 0  0 0 0 0.164914515 0" in="shadowInnerInner1" type="matrix" result="shadowMatrixInner1"></feColorMatrix>
            <feMerge>
                <feMergeNode in="SourceGraphic"></feMergeNode>
                <feMergeNode in="shadowMatrixInner1"></feMergeNode>
            </feMerge>
        </filter>
    </defs>
    <g id="Page-1" stroke="none" stroke-width="1" fill="none" fill-rule="evenodd" sketch:type="MSPage">
        <g id="Artboard-1" sketch:type="MSArtboardGroup">
            <g id="Rectangle-1-Copy-3">
                <use fill="#FFFFFF" sketch:type="MSShapeGroup" xlink:href="#path-3"></use>
                <use fill="url(#linearGradient-1)" xlink:href="#path-3"></use>
                <use fill-opacity="0.26000002" fill="url(#radialGradient-2)" xlink:href="#path-3"></use>
            </g>
            <g id="Rectangle-1-Copy">
                <use fill="#FFFFFF" sketch:type="MSShapeGroup" xlink:href="#path-5"></use>
                <use fill="url(#linearGradient-1)" xlink:href="#path-5"></use>
                <use fill="url(#radialGradient-4)" xlink:href="#path-5"></use>
                <use fill-opacity="0.4" fill="#FFE000" xlink:href="#path-5"></use>
            </g>
            <g id="Rectangle-1-Copy-2">
                <use fill="#FFFFFF" sketch:type="MSShapeGroup" xlink:href="#path-7"></use>
                <use fill="url(#linearGradient-1)" xlink:href="#path-7"></use>
                <use fill="url(#radialGradient-6)" xlink:href="#path-7"></use>
            </g>
            <path d="M144.852911,36 L153.596016,36 L163.530133,73.4798495 L153.947906,73.4798495 L152.621553,66.0376142 L145.421348,66.0376142 L144.01379,73.4798495 L135,73.4798495 L144.852911,36 Z M149.048519,46.236432 L146.639428,59.3207953 L151.403473,59.3207953 L149.048519,46.236432 Z M179.392237,70.3901128 C178.652363,71.4110744 177.831295,72.181262 176.929009,72.7006985 C176.026723,73.2201351 175.034224,73.4798495 173.951481,73.4798495 C171.533355,73.4798495 169.449106,72.2260559 167.698672,69.718431 C165.948238,67.210806 165.073034,64.1927456 165.073034,60.6641591 C165.073034,57.2251306 165.95726,54.1354248 167.725741,51.394949 C169.494221,48.6544731 171.758924,47.2842558 174.519918,47.2842558 C175.56657,47.2842558 176.541024,47.5036697 177.443309,47.942504 C178.345595,48.3813384 179.175686,49.0485357 179.933606,49.9441161 L182.261491,47.8753358 L188,47.8753358 L188,72.4588931 C188,76.2740653 186.935319,79.4846726 184.805924,82.0908114 C182.67653,84.6969502 179.653918,86 175.737998,86 C172.868729,86 169.882208,85.2029455 166.778345,83.6088125 L166.778345,75.1724879 C169.503248,77.2860575 171.876224,78.3428264 173.897344,78.3428264 C175.467321,78.3428264 176.775616,77.8189198 177.822268,76.7710908 C178.868919,75.7232618 179.392237,74.4023006 179.392237,72.8081677 L179.392237,70.3901128 Z M179.392237,55.6937131 C178.995231,55.2459229 178.598231,54.9145631 178.201226,54.6996239 C177.80422,54.4846846 177.40722,54.3772166 177.010215,54.3772166 C176.0177,54.3772166 175.232723,54.9100789 174.65526,55.9758195 C174.077798,57.04156 173.78907,58.4341666 173.78907,60.1536808 C173.78907,61.9090183 174.068775,63.3284918 174.628192,64.412144 C175.187609,65.4957962 175.91845,66.0376142 176.820735,66.0376142 C177.68693,66.0376142 178.332054,65.6256534 178.756129,64.8017195 C179.180203,63.9777856 179.392237,62.7508589 179.392237,61.1209027 L179.392237,55.6937131 Z" id="Ag" fill="#FFFFFF" filter="url(#filter-8)" sketch:type="MSShapeGroup"></path>
            <path d="M124.402741,17 L127.420137,17 L127.420137,24.0209738 L128.900369,24.0209738 L128.900369,26.270412 L127.420137,26.270412 L127.420137,30 L124.402741,30 L124.402741,26.270412 L120,26.270412 L120,23.8456929 L124.402741,17 Z M124.402741,20.7198502 L122.305746,24.0209738 L124.402741,24.0209738 L124.402741,20.7198502 Z M130.17185,17 L138,17 L138,19.4636704 L133.976805,30 L130.74117,30 L134.944649,19.4636704 L130.17185,19.4636704 L130.17185,17 Z" id="47" fill="#FFFFFF" filter="url(#filter-9)" sketch:type="MSShapeGroup"></path>
            <path d="M154.352768,100.546174 C154.352768,101.014074 154.228259,101.434475 153.979237,101.807388 C153.730214,102.180301 153.365774,102.472294 152.885906,102.683377 C152.406038,102.89446 151.837112,103 151.179111,103 C150.390237,103 149.739516,102.855762 149.22693,102.567282 C148.863393,102.359718 148.568024,102.082675 148.340814,101.736148 C148.113603,101.38962 148,101.052772 148,100.725594 C148,100.535619 148.068162,100.372912 148.204488,100.237467 C148.340814,100.102022 148.514401,100.034301 148.725252,100.034301 C148.896114,100.034301 149.040617,100.087071 149.158767,100.192612 C149.276916,100.298154 149.377796,100.454704 149.461409,100.662269 C149.5632,100.908532 149.673168,101.114335 149.791317,101.279683 C149.909466,101.445032 150.075782,101.581354 150.290268,101.688654 C150.504755,101.795955 150.786492,101.849604 151.135487,101.849604 C151.615355,101.849604 152.005242,101.741426 152.305159,101.525066 C152.605077,101.308706 152.755034,101.0387 152.755034,100.71504 C152.755034,100.458222 152.674148,100.249781 152.512374,100.08971 C152.3506,99.9296386 152.14157,99.8073883 151.885277,99.7229551 C151.628984,99.638522 151.286356,99.5488131 150.857383,99.4538259 C150.282995,99.3236581 149.802225,99.1715048 149.415059,98.9973615 C149.027892,98.8232181 148.720709,98.5857535 148.493498,98.2849604 C148.266288,97.9841674 148.152685,97.6103804 148.152685,97.1635884 C148.152685,96.7379046 148.27265,96.3597202 148.512584,96.0290237 C148.752518,95.6983273 149.09969,95.4441522 149.554111,95.2664908 C150.008531,95.0888294 150.542922,95 151.157299,95 C151.648073,95 152.072495,95.0589264 152.430579,95.176781 C152.788662,95.2946356 153.085849,95.4511864 153.322148,95.646438 C153.558446,95.8416896 153.731124,96.0466128 153.840185,96.2612137 C153.949246,96.4758146 154.003775,96.6851353 154.003775,96.8891821 C154.003775,97.0756386 153.935613,97.2436228 153.799287,97.3931398 C153.662961,97.5426569 153.49301,97.6174142 153.28943,97.6174142 C153.104026,97.6174142 152.963158,97.5725598 152.86682,97.4828496 C152.770483,97.3931394 152.665968,97.2462631 152.553272,97.0422164 C152.407857,96.7502184 152.233362,96.5224283 152.029782,96.3588391 C151.826201,96.1952498 151.499024,96.1134565 151.048238,96.1134565 C150.630171,96.1134565 150.292996,96.2022858 150.036703,96.3799472 C149.78041,96.5576086 149.652265,96.7713268 149.652265,97.0211082 C149.652265,97.1759023 149.695889,97.3095861 149.783138,97.4221636 C149.870386,97.5347411 149.990352,97.631486 150.143037,97.7124011 C150.295722,97.7933161 150.450223,97.8566401 150.606544,97.9023747 C150.762864,97.9481093 151.020971,98.0149512 151.380872,98.1029024 C151.831658,98.2049258 152.239721,98.3175016 152.605076,98.4406332 C152.97043,98.5637649 153.281249,98.7132797 153.537542,98.8891821 C153.793835,99.0650844 153.993777,99.2875976 154.137374,99.5567282 C154.280971,99.8258589 154.352768,100.155671 154.352768,100.546174 L154.352768,100.546174 Z M155.792366,102.044855 L155.792366,95.9498681 C155.792366,95.6332438 155.86689,95.3957792 156.01594,95.237467 C156.16499,95.0791549 156.357661,95 156.59396,95 C156.837529,95 157.034745,95.0782754 157.185612,95.2348285 C157.33648,95.3913816 157.411913,95.6297258 157.411913,95.9498681 L157.411913,102.044855 C157.411913,102.364997 157.33648,102.604221 157.185612,102.762533 C157.034745,102.920845 156.837529,103 156.59396,103 C156.361296,103 156.169534,102.919966 156.018666,102.759894 C155.867798,102.599823 155.792366,102.361479 155.792366,102.044855 L155.792366,102.044855 Z M160.809144,95.9498681 L160.809144,101.580475 L164.091862,101.580475 C164.353609,101.580475 164.55446,101.64204 164.694421,101.765172 C164.834383,101.888303 164.904362,102.043095 164.904362,102.229551 C164.904362,102.419526 164.835292,102.573438 164.697148,102.691293 C164.559004,102.809147 164.357244,102.868074 164.091862,102.868074 L160.182047,102.868074 C159.829417,102.868074 159.575854,102.792437 159.421351,102.641161 C159.266848,102.489885 159.189597,102.245384 159.189597,101.907652 L159.189597,95.9498681 C159.189597,95.6332438 159.263212,95.3957792 159.410445,95.237467 C159.557677,95.0791549 159.751257,95 159.991191,95 C160.234761,95 160.431976,95.0782754 160.582844,95.2348285 C160.733712,95.3913816 160.809144,95.6297258 160.809144,95.9498681 L160.809144,95.9498681 Z M165.891359,96.0290237 L167.701762,101.216359 L169.517617,95.9920844 C169.612137,95.7176767 169.683025,95.5268255 169.730285,95.4195251 C169.777545,95.3122246 169.855704,95.2154798 169.964765,95.1292876 C170.073826,95.0430954 170.222874,95 170.411913,95 C170.550057,95 170.678201,95.0334209 170.796351,95.1002639 C170.9145,95.1671068 171.0072,95.2559361 171.074455,95.3667546 C171.141709,95.4775731 171.175336,95.5892694 171.175336,95.701847 C171.175336,95.779244 171.16443,95.8627964 171.142617,95.9525066 C171.120805,96.0422168 171.09354,96.1301667 171.060822,96.2163588 C171.028104,96.302551 170.995386,96.3913804 170.962668,96.4828496 L169.026846,101.538259 C168.957774,101.731751 168.888703,101.915566 168.819631,102.08971 C168.750559,102.263853 168.670582,102.416886 168.579698,102.548813 C168.488814,102.680739 168.36794,102.788918 168.217072,102.873351 C168.066205,102.957784 167.881712,103 167.663591,103 C167.445469,103 167.260977,102.958664 167.110109,102.875989 C166.959241,102.793315 166.837459,102.684257 166.744757,102.548813 C166.652055,102.413368 166.571169,102.259456 166.502097,102.087071 C166.433025,101.914687 166.363954,101.731751 166.294883,101.538259 L164.391779,96.525066 C164.35906,96.4335967 164.325434,96.3438879 164.290898,96.2559367 C164.256362,96.1679855 164.227279,96.0729996 164.203649,95.9709763 C164.180019,95.8689529 164.168205,95.782762 164.168205,95.7124011 C164.168205,95.5329806 164.242729,95.3693939 164.391779,95.2216359 C164.540828,95.0738779 164.728047,95 164.95344,95 C165.229727,95 165.425125,95.0817934 165.539639,95.2453826 C165.654153,95.4089718 165.771392,95.6701829 165.891359,96.0290237 L165.891359,96.0290237 Z M177.658977,96.3403694 L174.010906,96.3403694 L174.010906,98.2401055 L177.369966,98.2401055 C177.617171,98.2401055 177.801663,98.293755 177.923448,98.4010554 C178.045233,98.5083559 178.106124,98.6499551 178.106124,98.8258575 C178.106124,99.0017599 178.046142,99.1451182 177.926174,99.2559367 C177.806207,99.3667552 177.620807,99.4221636 177.369966,99.4221636 L174.010906,99.4221636 L174.010906,101.622691 L177.784396,101.622691 C178.038872,101.622691 178.230634,101.679859 178.35969,101.794195 C178.488745,101.908532 178.553272,102.060685 178.553272,102.25066 C178.553272,102.433598 178.488745,102.582233 178.35969,102.69657 C178.230634,102.810906 178.038872,102.868074 177.784396,102.868074 L173.383809,102.868074 C173.031178,102.868074 172.777615,102.792437 172.623112,102.641161 C172.468609,102.489885 172.391359,102.245384 172.391359,101.907652 L172.391359,96.0923483 C172.391359,95.8671932 172.425895,95.683378 172.494966,95.5408971 C172.564038,95.3984162 172.672189,95.2946353 172.819421,95.2295515 C172.966653,95.1644676 173.154781,95.1319261 173.383809,95.1319261 L177.658977,95.1319261 C177.917087,95.1319261 178.10885,95.1873345 178.23427,95.298153 C178.35969,95.4089715 178.422399,95.5540888 178.422399,95.7335092 C178.422399,95.9164477 178.35969,96.063324 178.23427,96.1741425 C178.10885,96.284961 177.917087,96.3403694 177.658977,96.3403694 L177.658977,96.3403694 Z M182.01594,99.5593668 L181.448826,99.5593668 L181.448826,102.044855 C181.448826,102.372033 181.374302,102.613016 181.225252,102.76781 C181.076202,102.922604 180.881713,103 180.641779,103 C180.383668,103 180.183726,102.919086 180.041946,102.757256 C179.900167,102.595426 179.829279,102.357961 179.829279,102.044855 L179.829279,96.0923483 C179.829279,95.7546157 179.907438,95.5101151 180.063758,95.3588391 C180.220079,95.207563 180.472733,95.1319261 180.821728,95.1319261 L183.455537,95.1319261 C183.819073,95.1319261 184.129892,95.1468776 184.388003,95.176781 C184.646114,95.2066844 184.878774,95.2673698 185.08599,95.3588391 C185.33683,95.4608624 185.558584,95.6068592 185.751258,95.7968338 C185.943933,95.9868083 186.090254,96.2075625 186.190227,96.4591029 C186.290199,96.7106433 186.340185,96.9771314 186.340185,97.2585752 C186.340185,97.835535 186.172051,98.2963923 185.83578,98.6411609 C185.499509,98.9859296 184.989657,99.2304302 184.306208,99.3746702 C184.593402,99.5224282 184.867868,99.7405439 185.129614,100.029024 C185.39136,100.317504 185.624929,100.624449 185.830327,100.949868 C186.035725,101.275287 186.195679,101.56904 186.310193,101.831135 C186.424707,102.093229 186.481963,102.273526 186.481963,102.372032 C186.481963,102.474055 186.448336,102.575197 186.381082,102.675462 C186.313828,102.775726 186.222036,102.854881 186.105705,102.912929 C185.989373,102.970977 185.854867,103 185.702181,103 C185.520413,103 185.36773,102.958664 185.244128,102.875989 C185.120525,102.793315 185.014192,102.688655 184.925126,102.562005 C184.836059,102.435356 184.715185,102.248902 184.5625,102.002639 L183.913591,100.957784 C183.680927,100.574316 183.472806,100.282323 183.28922,100.081794 C183.105634,99.8812655 182.919324,99.7440637 182.730285,99.6701847 C182.541246,99.5963057 182.303133,99.5593668 182.01594,99.5593668 L182.01594,99.5593668 Z M182.942953,96.3087071 L181.448826,96.3087071 L181.448826,98.4353562 L182.899329,98.4353562 C183.288313,98.4353562 183.615491,98.4028147 183.880872,98.3377309 C184.146254,98.272647 184.348923,98.1618302 184.488884,98.005277 C184.628846,97.8487239 184.698826,97.6332468 184.698826,97.3588391 C184.698826,97.1442382 184.642478,96.9551459 184.529782,96.7915567 C184.417086,96.6279675 184.260767,96.5057172 184.060822,96.4248021 C183.871783,96.3474051 183.499164,96.3087071 182.942953,96.3087071 L182.942953,96.3087071 Z" id="SILVER" fill="#FFFFFF" filter="url(#filter-10)" sketch:type="MSShapeGroup"></path>
            <path d="M12,125.207397 L19.8179551,125.207397 L19.8179551,127.592458 L15.8,137.792603 L12.5685786,137.792603 L16.7665835,127.592458 L12,127.592458 L12,125.207397 Z M24.0349127,131.438724 C23.3905205,130.948511 22.9325034,130.478731 22.6608479,130.029369 C22.3891923,129.580007 22.2533666,129.05995 22.2533666,128.469181 C22.2533666,127.381914 22.6339945,126.53191 23.3952618,125.919144 C24.1565292,125.306378 25.0709839,125 26.1386534,125 C27.1936877,125 28.076555,125.284382 28.7872818,125.853154 C29.4980085,126.421927 29.8533666,127.139952 29.8533666,128.007252 C29.8533666,128.510034 29.7254377,128.953104 29.4695761,129.336476 C29.2137144,129.719847 28.7320069,130.191199 28.0244389,130.750544 C28.921534,131.253326 29.5517023,131.771813 29.9149626,132.306019 C30.2782229,132.840225 30.4598504,133.456124 30.4598504,134.153735 C30.4598504,135.303849 30.0271032,136.232411 29.161596,136.939449 C28.2960888,137.646486 27.2568639,138 26.0438903,138 C24.8245991,138 23.7869536,137.654342 22.9309227,136.963017 C22.0748918,136.271691 21.6468828,135.442113 21.6468828,134.474257 C21.6468828,133.280149 22.4428848,132.268315 24.0349127,131.438724 L24.0349127,131.438724 Z M26.2049875,130.1095 C26.7672514,129.54387 27.0483791,128.984533 27.0483791,128.431472 C27.0483791,128.098379 26.9615138,127.826566 26.7877805,127.616026 C26.6140473,127.405486 26.4008325,127.300218 26.1481297,127.300218 C25.9017444,127.300218 25.6901089,127.4102 25.513217,127.630167 C25.336325,127.850134 25.2478803,128.123518 25.2478803,128.450326 C25.2478803,129.04738 25.5669129,129.600433 26.2049875,130.1095 L26.2049875,130.1095 Z M25.9301746,132.108049 C24.995174,132.698819 24.5276808,133.377564 24.5276808,134.144307 C24.5276808,134.571672 24.6714034,134.934613 24.9588529,135.23314 C25.2463024,135.531667 25.5858667,135.680928 25.9775561,135.680928 C26.3692455,135.680928 26.7040718,135.528525 26.9820449,135.223713 C27.260018,134.918901 27.3990025,134.527679 27.3990025,134.050036 C27.3990025,133.245585 26.9093981,132.598262 25.9301746,132.108049 L25.9301746,132.108049 Z" id="78" fill="#FFFFFF" filter="url(#filter-11)" sketch:type="MSShapeGroup"></path>
            <path d="M38,143 L51.3903509,143 C54.8569513,143 57.5421793,143.925185 59.4461153,145.775582 C61.3500513,147.62598 62.302005,150.249571 62.302005,153.646436 C62.302005,155.416381 61.9876807,157.19077 61.3590226,158.969654 C60.7303644,160.748539 59.4057119,162.294983 57.3850251,163.609033 C55.3643383,164.923083 52.8272918,165.580099 49.7738095,165.580099 L46.8101504,165.580099 L46.8101504,180.410021 L38,180.410021 L38,143 Z M46.8101504,150.213832 L46.8101504,158.232181 L48.75,158.232181 C50.1869328,158.232181 51.3319715,157.861213 52.1851504,157.119266 C53.0383292,156.377319 53.4649123,155.335928 53.4649123,153.99506 C53.4649123,152.725705 53.1371169,151.778173 52.4815163,151.152435 C51.8259157,150.526696 50.8425295,150.213832 49.5313283,150.213832 L46.8101504,150.213832 Z M68.1484962,147.156669 L75.2612782,147.156669 L75.2612782,154.853211 L79.5181704,154.853211 L79.5181704,161.101623 L75.6384712,161.101623 L75.6384712,171.560339 C75.6384712,173.16938 76.2850813,173.973888 77.5783208,173.973888 C78.2069789,173.973888 78.853589,173.732536 79.5181704,173.249824 L79.5181704,180.168666 C77.9375443,180.722892 76.3299998,181 74.6954887,181 C72.037163,181 70.0838617,180.369802 68.8355263,179.109386 C67.5871909,177.84897 66.9630326,175.895802 66.9630326,173.249824 L66.9630326,161.101623 L63.8107769,161.101623 L63.8107769,154.853211 L67.447995,154.853211 L68.1484962,147.156669 Z" id="Pt" fill="#FFFFFF" filter="url(#filter-12)" sketch:type="MSShapeGroup"></path>
            <path d="M34.1042305,207.854881 L32.6203101,207.854881 L32.6203101,210.044855 C32.6203101,210.357961 32.5439326,210.595426 32.3911753,210.757256 C32.2384181,210.919086 32.0456558,211 31.8128828,211 C31.5691986,211 31.3727994,210.919966 31.2236792,210.759894 C31.074559,210.599823 31,210.364997 31,210.055409 L31,204.092348 C31,203.74758 31.081833,203.50132 31.2455015,203.353562 C31.40917,203.205804 31.6692172,203.131926 32.0256508,203.131926 L34.1042305,203.131926 C34.7188966,203.131926 35.1917097,203.17766 35.5226838,203.269129 C35.8500208,203.35708 36.1327993,203.503077 36.3710279,203.707124 C36.6092566,203.911171 36.7901985,204.160948 36.9138591,204.456464 C37.0375198,204.75198 37.0993492,205.084431 37.0993492,205.453826 C37.0993492,206.241868 36.8483945,206.839048 36.3464778,207.245383 C35.844561,207.651717 35.0971527,207.854881 34.1042305,207.854881 L34.1042305,207.854881 Z M33.711428,204.308707 L32.6203101,204.308707 L32.6203101,206.672823 L33.711428,206.672823 C34.0933212,206.672823 34.41247,206.634125 34.668884,206.556728 C34.925298,206.479331 35.120788,206.352683 35.2553599,206.176781 C35.3899318,206.000879 35.4572167,205.77045 35.4572167,205.485488 C35.4572167,205.144238 35.3535615,204.866316 35.1462481,204.651715 C34.9134751,204.423042 34.4352065,204.308707 33.711428,204.308707 L33.711428,204.308707 Z M40.0399119,203.949868 L40.0399119,209.580475 L43.3241769,209.580475 C43.5860465,209.580475 43.786992,209.64204 43.9270195,209.765172 C44.067047,209.888303 44.1370597,210.043095 44.1370597,210.229551 C44.1370597,210.419526 44.0679563,210.573438 43.9297473,210.691293 C43.7915384,210.809147 43.5896836,210.868074 43.3241769,210.868074 L39.4125191,210.868074 C39.0597226,210.868074 38.8060402,210.792437 38.6514644,210.641161 C38.4968886,210.489885 38.4196018,210.245384 38.4196018,209.907652 L38.4196018,203.949868 C38.4196018,203.633244 38.4932516,203.395779 38.6405532,203.237467 C38.7878549,203.079155 38.9815264,203 39.2215735,203 C39.4652577,203 39.6625662,203.078275 39.813505,203.234828 C39.9644437,203.391382 40.0399119,203.629726 40.0399119,203.949868 L40.0399119,203.949868 Z M50.1709418,209.992084 L49.7890505,209.021108 L46.5375191,209.021108 L46.1556279,210.013193 C46.0065077,210.400178 45.8792119,210.661389 45.7737366,210.796834 C45.6682613,210.932279 45.4955027,211 45.2554556,211 C45.0517792,211 44.8717466,210.927881 44.7153522,210.783641 C44.5589579,210.639401 44.4807619,210.475814 44.4807619,210.292876 C44.4807619,210.187335 44.498947,210.078277 44.5353178,209.965699 C44.5716885,209.853122 44.6316994,209.696571 44.7153522,209.496042 L46.7611983,204.472296 C46.8193916,204.328056 46.8894043,204.154794 46.9712385,203.952507 C47.0530728,203.750219 47.1403613,203.582235 47.2331068,203.448549 C47.3258523,203.314863 47.4476926,203.206685 47.5986313,203.124011 C47.7495701,203.041336 47.9359675,203 48.1578292,203 C48.3833281,203 48.571544,203.041336 48.7224828,203.124011 C48.8734215,203.206685 48.9952618,203.313104 49.0880073,203.443272 C49.1807528,203.57344 49.2589488,203.71328 49.3225976,203.862797 C49.3862465,204.012314 49.4671703,204.21196 49.5653714,204.461741 L51.6548622,209.453826 C51.8185307,209.833775 51.9003637,210.109938 51.9003637,210.282322 C51.9003637,210.461742 51.823077,210.626209 51.6685011,210.775726 C51.5139253,210.925243 51.3275279,211 51.1093032,211 C50.9820055,211 50.8728948,210.978013 50.7819678,210.934037 C50.6910409,210.890061 50.6146634,210.830255 50.5528331,210.754617 C50.4910028,210.678979 50.4246271,210.562886 50.3537041,210.406332 C50.282781,210.249779 50.2218609,210.111698 50.1709418,209.992084 L50.1709418,209.992084 Z M46.9630551,207.844327 L49.3526034,207.844327 L48.1469181,204.651715 L46.9630551,207.844327 Z M57.3013974,204.424802 L55.5337864,204.424802 L55.5337864,210.044855 C55.5337864,210.368515 55.4592274,210.608618 55.3101072,210.765172 C55.160987,210.921725 54.9682248,211 54.7318147,211 C54.4917676,211 54.2962776,210.920845 54.1453388,210.762533 C53.9944001,210.604221 53.9189319,210.364997 53.9189319,210.044855 L53.9189319,204.424802 L52.1513208,204.424802 C51.8749029,204.424802 51.6694111,204.365876 51.5348392,204.248021 C51.4002673,204.130167 51.3329824,203.974495 51.3329824,203.781003 C51.3329824,203.580474 51.4029951,203.422164 51.5430226,203.306069 C51.6830501,203.189973 51.8858141,203.131926 52.1513208,203.131926 L57.3013974,203.131926 C57.5814524,203.131926 57.789672,203.191732 57.9260624,203.311346 C58.0624528,203.430959 58.130647,203.58751 58.130647,203.781003 C58.130647,203.974495 58.0615436,204.130167 57.9233346,204.248021 C57.7851256,204.365876 57.5778153,204.424802 57.3013974,204.424802 L57.3013974,204.424802 Z M59.1562979,210.044855 L59.1562979,203.949868 C59.1562979,203.633244 59.2308568,203.395779 59.379977,203.237467 C59.5290972,203.079155 59.7218595,203 59.9582695,203 C60.2019537,203 60.3992623,203.078275 60.550201,203.234828 C60.7011397,203.391382 60.776608,203.629726 60.776608,203.949868 L60.776608,210.044855 C60.776608,210.364997 60.7011397,210.604221 60.550201,210.762533 C60.3992623,210.920845 60.2019537,211 59.9582695,211 C59.7254965,211 59.5336436,210.919966 59.3827048,210.759894 C59.2317661,210.599823 59.1562979,210.361479 59.1562979,210.044855 L59.1562979,210.044855 Z M64.6991769,203.939314 L67.8143185,208.498681 L67.8143185,203.897098 C67.8143185,203.598064 67.8806942,203.373791 68.0134475,203.224274 C68.1462009,203.074757 68.3253243,203 68.5508231,203 C68.7835961,203 68.9672658,203.074757 69.1018377,203.224274 C69.2364096,203.373791 69.3036945,203.598064 69.3036945,203.897098 L69.3036945,209.98153 C69.3036945,210.660514 69.0127326,211 68.4308002,211 C68.285317,211 68.1543842,210.979772 68.0379977,210.939314 C67.9216112,210.898856 67.8125005,210.834653 67.7106623,210.746702 C67.6088241,210.658751 67.5142615,210.555849 67.4269717,210.437995 C67.3396818,210.32014 67.2523932,210.199649 67.1651034,210.076517 L64.12634,205.569921 L64.12634,210.102902 C64.12634,210.398418 64.055418,210.621811 63.913572,210.773087 C63.7717259,210.924363 63.5898748,211 63.368013,211 C63.1388771,211 62.9552074,210.923484 62.8169985,210.770449 C62.6787895,210.617413 62.6096861,210.3949 62.6096861,210.102902 L62.6096861,204.134565 C62.6096861,203.881265 62.6387823,203.682499 62.6969755,203.538259 C62.76608,203.379946 62.8806462,203.25066 63.0406776,203.150396 C63.2007091,203.050131 63.3734677,203 63.5589587,203 C63.7044418,203 63.8290098,203.022867 63.9326665,203.068602 C64.0363233,203.114336 64.1272488,203.175901 64.205446,203.253298 C64.2836432,203.330695 64.3636577,203.430958 64.445492,203.55409 C64.5273262,203.677221 64.611887,203.805628 64.6991769,203.939314 L64.6991769,203.939314 Z M71.0876723,207.670185 L71.0876723,203.949868 C71.0876723,203.633244 71.161322,203.395779 71.3086237,203.237467 C71.4559253,203.079155 71.6495968,203 71.889644,203 C72.1406023,203 72.3397294,203.079155 72.487031,203.237467 C72.6343327,203.395779 72.7079824,203.633244 72.7079824,203.949868 L72.7079824,207.754617 C72.7079824,208.187337 72.7579915,208.548811 72.8580111,208.83905 C72.9580307,209.129289 73.1353356,209.354441 73.3899311,209.514512 C73.6445265,209.674583 74.0009548,209.754617 74.4592266,209.754617 C75.0920782,209.754617 75.5394321,209.59191 75.8013017,209.266491 C76.0631713,208.941071 76.1941041,208.447673 76.1941041,207.78628 L76.1941041,203.949868 C76.1941041,203.629726 76.2668446,203.391382 76.4123277,203.234828 C76.5578108,203.078275 76.7523916,203 76.9960758,203 C77.23976,203 77.4370685,203.078275 77.5880073,203.234828 C77.738946,203.391382 77.8144142,203.629726 77.8144142,203.949868 L77.8144142,207.670185 C77.8144142,208.275289 77.7534941,208.780121 77.631652,209.184697 C77.5098099,209.589272 77.2797682,209.944589 76.9415199,210.25066 C76.6505537,210.510995 76.3123105,210.700967 75.9267802,210.82058 C75.54125,210.940194 75.0902591,211 74.573794,211 C73.9591279,211 73.429941,210.935797 72.9862175,210.807388 C72.542494,210.678979 72.1806101,210.480212 71.9005551,210.211082 C71.6205001,209.941951 71.4150083,209.597188 71.2840735,209.176781 C71.1531387,208.756374 71.0876723,208.254181 71.0876723,207.670185 L71.0876723,207.670185 Z M82.2661753,209.701847 L80.9841118,204.773087 L80.9841118,210.113456 C80.9841118,210.408972 80.9159176,210.630606 80.7795272,210.778364 C80.6431368,210.926122 80.4621948,211 80.236696,211 C80.0184713,211 79.8402572,210.927002 79.7020482,210.781003 C79.5638393,210.635004 79.4947358,210.412491 79.4947358,210.113456 L79.4947358,203.992084 C79.4947358,203.654352 79.5856614,203.426562 79.7675153,203.308707 C79.9493692,203.190853 80.1948683,203.131926 80.5040199,203.131926 L81.0059342,203.131926 C81.3078116,203.131926 81.5269423,203.158311 81.6633327,203.211082 C81.7997231,203.263853 81.9006505,203.358838 81.9661179,203.496042 C82.0315853,203.633246 82.1061443,203.856639 82.1897971,204.166227 L83.3518377,208.403694 L84.5138783,204.166227 C84.597531,203.856639 84.67209,203.633246 84.7375574,203.496042 C84.8030248,203.358838 84.9039522,203.263853 85.0403426,203.211082 C85.1767331,203.158311 85.3958637,203.131926 85.6977412,203.131926 L86.1996554,203.131926 C86.5088071,203.131926 86.7543061,203.190853 86.93616,203.308707 C87.1180139,203.426562 87.2089395,203.654352 87.2089395,203.992084 L87.2089395,210.113456 C87.2089395,210.408972 87.1407453,210.630606 87.0043549,210.778364 C86.8679645,210.926122 86.6852041,211 86.4560681,211 C86.2414806,211 86.0650849,210.926122 85.926876,210.778364 C85.788667,210.630606 85.7195636,210.408972 85.7195636,210.113456 L85.7195636,204.773087 L84.4375,209.701847 C84.3538472,210.021989 84.285653,210.256815 84.2329154,210.406332 C84.1801778,210.555849 84.0828874,210.692172 83.9410413,210.815303 C83.7991953,210.938435 83.602796,211 83.3518377,211 C83.1627096,211 83.0026806,210.960423 82.8717458,210.881266 C82.740811,210.80211 82.6389743,210.700968 82.5662328,210.577836 C82.4934912,210.454705 82.4362081,210.318382 82.3943817,210.168865 C82.3525553,210.019348 82.3098203,209.863677 82.2661753,209.701847 L82.2661753,209.701847 Z" id="PLATINUM" fill="#FFFFFF" filter="url(#filter-13)" sketch:type="MSShapeGroup"></path>
            <path d="M120,125.207397 L127.817955,125.207397 L127.817955,127.592458 L123.8,137.792603 L120.568579,137.792603 L124.766584,127.592458 L120,127.592458 L120,125.207397 Z M135.048379,132.541697 C134.694595,132.950208 134.339237,133.258157 133.982294,133.465555 C133.625351,133.672952 133.266835,133.77665 132.906733,133.77665 C132.060179,133.77665 131.319455,133.377572 130.684539,132.579405 C130.049623,131.781238 129.73217,130.794543 129.73217,129.619289 C129.73217,128.337194 130.114377,127.246802 130.878803,126.348078 C131.643229,125.449355 132.594009,125 133.731172,125 C135.026274,125 136.084451,125.578191 136.905736,126.73459 C137.72702,127.89099 138.137656,129.490442 138.137656,131.532995 C138.137656,132.676825 137.956028,133.740508 137.592768,134.724075 C137.229508,135.707643 136.657776,136.499514 135.877556,137.09971 C135.097336,137.699906 134.16077,138 133.06783,138 C132.290769,138 131.447386,137.814602 130.537656,137.4438 L130.537656,134.662799 C131.365258,135.228429 132.08545,135.51124 132.698254,135.51124 C133.361599,135.51124 133.889109,135.262995 134.280798,134.766497 C134.672487,134.27 134.928345,133.528407 135.048379,132.541697 L135.048379,132.541697 Z M135.048379,129.864394 C134.985203,129.116506 134.838322,128.535172 134.607731,128.120377 C134.377139,127.705582 134.107067,127.498187 133.797506,127.498187 C133.481628,127.498187 133.22577,127.682014 133.029925,128.049674 C132.83408,128.417333 132.73616,128.871402 132.73616,129.411893 C132.73616,129.946099 132.827763,130.375029 133.010973,130.698695 C133.194182,131.022361 133.437405,131.184191 133.740648,131.184191 C133.955446,131.184191 134.171819,131.074209 134.389776,130.854242 C134.607732,130.634275 134.827264,130.304329 135.048379,129.864394 L135.048379,129.864394 Z" id="79" fill="#FFFFFF" filter="url(#filter-14)" sketch:type="MSShapeGroup"></path>
            <path d="M149.905987,143 L158.69619,143 L168.68382,180.410021 L159.049975,180.410021 L157.716477,172.981651 L150.477486,172.981651 L149.062345,180.410021 L140,180.410021 L149.905987,143 Z M154.124196,153.217361 L151.702128,166.277347 L156.491836,166.277347 L154.124196,153.217361 Z M171.05146,154.853211 L179.651163,154.853211 L179.651163,170.675371 C179.651163,171.640795 179.791768,172.369322 180.072984,172.860974 C180.354199,173.352625 180.766944,173.598447 181.311232,173.598447 C181.946234,173.598447 182.476907,173.316869 182.903266,172.753705 C183.329624,172.190541 183.542801,171.497769 183.542801,170.675371 L183.542801,154.853211 L192.305789,154.853211 L192.305789,180.410021 L184.849085,180.410021 L184.032657,177.862385 C183.17994,178.899323 182.268271,179.681484 181.297625,180.208892 C180.326978,180.7363 179.288312,181 178.181593,181 C176.1133,181 174.407891,180.168675 173.065314,178.505999 C171.722738,176.843323 171.05146,174.778417 171.05146,172.311221 L171.05146,154.853211 Z" id="Au" fill="#FFFFFF" filter="url(#filter-15)" sketch:type="MSShapeGroup"></path>
            <path d="M158.591657,207.722955 L158.591657,209.205805 C158.591657,209.402815 158.57176,209.560246 158.531965,209.6781 C158.492171,209.795955 158.418914,209.902374 158.312193,209.997361 C158.205471,210.092349 158.068906,210.183817 157.902493,210.271768 C157.421342,210.525067 156.958286,210.709762 156.513312,210.825858 C156.068338,210.941953 155.583576,211 155.059013,211 C154.447626,211 153.890512,210.908532 153.387655,210.725594 C152.884798,210.542655 152.456109,210.277047 152.101577,209.92876 C151.747045,209.580473 151.474819,209.158314 151.284891,208.662269 C151.094963,208.166224 151,207.61214 151,207 C151,206.398414 151.092249,205.847848 151.276751,205.348285 C151.461252,204.848722 151.732574,204.424804 152.090724,204.076517 C152.448874,203.72823 152.884798,203.461742 153.398508,203.277045 C153.912218,203.092347 154.494655,203 155.145837,203 C155.681253,203 156.155162,203.06948 156.567577,203.208443 C156.979992,203.347406 157.314622,203.522426 157.571477,203.733509 C157.828332,203.944592 158.021875,204.167985 158.152111,204.403694 C158.282348,204.639403 158.347465,204.848724 158.347465,205.031662 C158.347465,205.228673 158.272399,205.396657 158.122266,205.53562 C157.972132,205.674583 157.792155,205.744063 157.58233,205.744063 C157.466564,205.744063 157.355322,205.717678 157.248601,205.664908 C157.14188,205.612137 157.052343,205.538259 156.97999,205.443272 C156.781018,205.14072 156.612798,204.91205 156.475326,204.757256 C156.337855,204.602462 156.152452,204.472296 155.919111,204.366755 C155.685771,204.261213 155.388222,204.208443 155.026454,204.208443 C154.653833,204.208443 154.321012,204.270888 154.02798,204.395778 C153.734949,204.520669 153.484428,204.701846 153.276412,204.939314 C153.068395,205.176782 152.90922,205.467896 152.798881,205.812665 C152.688542,206.157434 152.633373,206.539136 152.633373,206.957784 C152.633373,207.86544 152.847717,208.563762 153.276412,209.05277 C153.705106,209.541779 154.302919,209.78628 155.069866,209.78628 C155.442487,209.78628 155.792492,209.738787 156.119891,209.643799 C156.447291,209.548812 156.779208,209.413369 157.115652,209.237467 L157.115652,207.98153 L155.86756,207.98153 C155.567293,207.98153 155.340287,207.937555 155.186536,207.849604 C155.032784,207.761653 154.95591,207.612138 154.95591,207.401055 C154.95591,207.228671 155.020123,207.086192 155.14855,206.973615 C155.276978,206.861037 155.451528,206.804749 155.672206,206.804749 L157.500933,206.804749 C157.725229,206.804749 157.915154,206.824098 158.070714,206.862797 C158.226274,206.901495 158.351986,206.987686 158.447855,207.121372 C158.543723,207.255058 158.591657,207.455584 158.591657,207.722955 L158.591657,207.722955 Z M163.627438,203 C164.452268,203 165.160418,203.162707 165.751908,203.488127 C166.343398,203.813546 166.791079,204.276162 167.094964,204.875989 C167.398848,205.475817 167.550789,206.180295 167.550789,206.989446 C167.550789,207.587514 167.467583,208.131044 167.30117,208.620053 C167.134757,209.109061 166.885141,209.53298 166.552315,209.891821 C166.219488,210.250661 165.810697,210.525065 165.325928,210.71504 C164.84116,210.905014 164.285855,211 163.659997,211 C163.037756,211 162.480642,210.902376 161.988638,210.707124 C161.496634,210.511872 161.086034,210.236589 160.756826,209.881266 C160.427617,209.525944 160.178905,209.098507 160.010683,208.598945 C159.842461,208.099382 159.758352,207.55937 159.758352,206.978892 C159.758352,206.384342 159.846079,205.839053 160.021536,205.343008 C160.196994,204.846963 160.451132,204.424804 160.783958,204.076517 C161.116784,203.72823 161.521958,203.461742 161.999491,203.277045 C162.477025,203.092347 163.019668,203 163.627438,203 L163.627438,203 Z M165.917416,206.978892 C165.917416,206.412486 165.823357,205.921726 165.635238,205.506596 C165.447119,205.091467 165.178511,204.777486 164.829405,204.564644 C164.480299,204.351802 164.079647,204.245383 163.627438,204.245383 C163.305464,204.245383 163.007915,204.304309 162.73478,204.422164 C162.461646,204.540018 162.2265,204.71152 162.029337,204.936675 C161.832174,205.161831 161.676616,205.449427 161.562659,205.799472 C161.448702,206.149518 161.391725,206.542654 161.391725,206.978892 C161.391725,207.418648 161.448702,207.816181 161.562659,208.171504 C161.676616,208.526827 161.8376,208.821459 162.045616,209.055409 C162.253633,209.289359 162.492396,209.464379 162.761913,209.580475 C163.03143,209.696571 163.32717,209.754617 163.649144,209.754617 C164.061559,209.754617 164.440505,209.654355 164.785993,209.453826 C165.131481,209.253297 165.40642,208.943714 165.610819,208.525066 C165.815218,208.106418 165.917416,207.591032 165.917416,206.978892 L165.917416,206.978892 Z M170.508225,203.949868 L170.508225,209.580475 L173.77497,209.580475 C174.035443,209.580475 174.235317,209.64204 174.374597,209.765172 C174.513878,209.888303 174.583517,210.043095 174.583517,210.229551 C174.583517,210.419526 174.514782,210.573438 174.37731,210.691293 C174.239839,210.809147 174.039061,210.868074 173.77497,210.868074 L169.884178,210.868074 C169.533264,210.868074 169.280935,210.792437 169.127183,210.641161 C168.973432,210.489885 168.896558,210.245384 168.896558,209.907652 L168.896558,203.949868 C168.896558,203.633244 168.969814,203.395779 169.11633,203.237467 C169.262846,203.079155 169.455485,203 169.694251,203 C169.936636,203 170.132892,203.078275 170.283025,203.234828 C170.433159,203.391382 170.508225,203.629726 170.508225,203.949868 L170.508225,203.949868 Z M176.640156,203.131926 L178.740207,203.131926 C179.286476,203.131926 179.754958,203.181178 180.145667,203.279683 C180.536376,203.378189 180.890903,203.562883 181.209259,203.833773 C182.037707,204.52331 182.451925,205.571673 182.451925,206.978892 C182.451925,207.443274 182.410322,207.867192 182.327115,208.25066 C182.243909,208.634127 182.115483,208.97977 181.941835,209.287599 C181.768186,209.595428 181.545703,209.870711 181.274377,210.113456 C181.060934,210.299913 180.827597,210.449428 180.57436,210.562005 C180.321122,210.674583 180.048896,210.753738 179.757673,210.799472 C179.46645,210.845207 179.138151,210.868074 178.772766,210.868074 L176.672715,210.868074 C176.379683,210.868074 176.159008,210.824978 176.010683,210.738786 C175.862359,210.652594 175.765587,210.531223 175.720366,210.37467 C175.675145,210.218117 175.652535,210.014953 175.652535,209.765172 L175.652535,204.092348 C175.652535,203.754616 175.730314,203.510115 175.885874,203.358839 C176.041434,203.207563 176.292859,203.131926 176.640156,203.131926 L176.640156,203.131926 Z M177.264202,204.372032 L177.264202,209.622691 L178.485162,209.622691 C178.75287,209.622691 178.962692,209.615655 179.114635,209.601583 C179.266577,209.587511 179.423944,209.552331 179.586739,209.496042 C179.749534,209.439753 179.890622,209.360599 180.010005,209.258575 C180.549039,208.815301 180.818552,208.051896 180.818552,206.968338 C180.818552,206.204921 180.700075,205.633247 180.463117,205.253298 C180.226159,204.873349 179.934036,204.631487 179.586739,204.527704 C179.239442,204.423922 178.819798,204.372032 178.327794,204.372032 L177.264202,204.372032 Z" id="GOLD" fill="#FFFFFF" filter="url(#filter-16)" sketch:type="MSShapeGroup"></path>
        </g>
    </g>
</svg>